<?xml version="1.0" encoding="UTF-8"?>
<svg id="Layer_2" data-name="Layer 2" xmlns="http://www.w3.org/2000/svg" viewBox="0 0 362.65 66.47">
  <defs>
    <style>
      .cls-1 {
        fill: #221e1f;
        stroke-width: 0px;
      }
    </style>
  </defs>
  <g id="Presentation">
    <g>
      <path id="path5904" class="cls-1" d="M51.44,0c-1.67,0-2.06,1.73-2.55,4.54-.49,2.81-.81,7.57-.94,9.8l-2.86.2c.14.31.29.62.41.93l2.93-.17c.24-.01.43-.2.44-.44.1-2.06.41-7,.95-10.11.54-3.11.89-3.7,1.62-3.7s1.09.77,1.62,3.76c.53,2.99.83,8.1.94,10.11,0,.24.2.43.43.44l3.66.25v-.95l-3.17-.23c-.15-3.28-.46-6.55-.94-9.8-.48-2.85-.88-4.61-2.54-4.61ZM40.65,14.86l-12.27.8v.96l4.07-.27,8.52-.56c-.06-.24-.28-.86-.31-.94ZM62.76,14.9v.95l11.88.77v-.95l-11.88-.77ZM23.69,15.97c-8.8.58-16.91,1.11-19.49,1.32C1.28,17.51.12,18.22,0,19.76c-.14,1.92,1.67,3.4,5.4,4.42l18.29,5.06v-1.03l-18.04-4.94c-2.21-.61-4.83-1.7-4.7-3.43,0-.56.1-1.34,3.32-1.6,2.57-.21,10.65-.74,19.42-1.32v-.95ZM79.31,15.98v.95c8.73.57,16.74,1.1,19.3,1.31,3.22.26,3.29,1.03,3.33,1.6.13,1.73-2.48,2.82-4.7,3.43l-17.93,4.96v1.03l18.17-5.03c3.69-1.07,5.54-2.55,5.4-4.47-.12-1.54-1.3-2.24-4.19-2.47-2.57-.21-10.62-.74-19.38-1.31h0ZM74.63,29.47l-11.87,3.35v.99l11.87-3.31v-1.03ZM28.38,29.55v1.03l11.45,3.17c.15-.31.3-.59.44-.9l-11.89-3.31ZM44.19,33.94c-.16.29-.35.56-.52.83l4.47,1.27c.09,1.19.32,4.25.57,7.62h.98c-.28-3.77-.52-7.21-.6-8.02-.02-.19-.15-.35-.33-.41-.27-.08-1.97-.57-4.56-1.29h0ZM58.09,34.08l-3.93,1.11c-.18.06-.31.22-.33.41-.07.84-.33,4.24-.6,8.02h.88v.04h.06c.25-3.37.47-6.42.57-7.62l3.34-.94v-1.03ZM49.17,50.09l.38,5.34c-5.01.67-8.87,1.76-11.56,3.27-2.91,1.68-3.46,2.54-3.4,3.41.11,1.55,1.63,1.99,3.03,2.27,4.27.59,8.57.88,12.87.88.18.59.37,1.17.91,1.22h.08c.54,0,.73-.64.91-1.22,4.31,0,8.61-.29,12.87-.88,1.4-.28,2.9-.71,3.02-2.27.07-.82-.48-1.69-3.39-3.41-2.69-1.54-6.57-2.64-11.55-3.27l.38-5.34h-.95c-.22,3.09-.39,5.49-.4,5.74-.01.25.17.47.42.51,5.07.59,8.98,1.67,11.64,3.19,2.98,1.71,2.93,2.3,2.92,2.51-.05.63-.42,1.03-2.27,1.41-4.32.58-8.68.87-13.04.86-.2,0-.38.14-.44.33,0,.08-.06.19-.09.28-.03.09,0,.12-.06.2,0-.08,0-.14-.06-.2-.06-.06-.06-.2-.09-.28-.06-.19-.24-.32-.44-.33-4.36.01-8.72-.27-13.04-.86-1.84-.37-2.21-.78-2.27-1.41,0-.22-.05-.8,2.93-2.51,2.66-1.52,6.57-2.6,11.64-3.19.25-.03.43-.25.42-.51,0-.25-.18-2.66-.4-5.74h-.97Z"/>
      <path id="path5924" class="cls-1" d="M43.72,44.41c-.06,0,0,0-.08.06-.21.15-.46.25-.71.31,0,0-.06,0-.06.06v.08c.04.07.04.15,0,.22l-.62,1.65c-.21.55-.66,1.65-.74,1.78-.09.16-.25.26-.43.27h-.17v.26h1.57s.06,0,.06-.06v-.15h-.3c-.19,0-.24-.14-.24-.29.07-.42.17-.83.3-1.23h1.38c.08.23.32,1.03.38,1.26.06.23-.02.22-.19.22h-.19v.19s0,.07.06.07h1.93c.05,0,.06,0,.06-.07v-.19h-.22c-.16-.02-.3-.13-.37-.28-.08-.18-1.25-3.64-1.37-4.04,0-.07,0-.11-.06-.11h0ZM55.32,44.41c-.07,0,0,0-.07.06-.21.15-.46.25-.71.31,0,0-.06,0-.06.06,0,.03,0,.05,0,.08.05.07,0,.16,0,.22l-.62,1.65c-.21.55-.66,1.65-.74,1.78-.09.16-.25.26-.43.27h-.17v.26h1.54c.05,0,.05,0,.05-.06v-.15h-.31c-.19,0-.24-.14-.24-.29.08-.42.19-.83.34-1.23h1.38c.07.23.32,1.03.38,1.26.06.23-.02.22-.2.22h-.18v.19s0,.07.06.07h1.93s.06,0,.06-.07v-.19h-.22c-.16-.02-.3-.13-.37-.28-.08-.18-.49-1.34-.64-1.83-.14-.49-.61-1.81-.73-2.2,0-.07,0-.11-.07-.11h0ZM66.92,44.41c-.07,0,0,0-.08.06-.21.15-.45.25-.7.31,0,0-.06,0-.06.06,0,.03,0,.05,0,.08.03.07.03.15,0,.22,0,.16-.57,1.51-.62,1.65-.21.55-.65,1.65-.74,1.78-.09.16-.25.26-.42.27h-.17v.26h1.55v-.21h-.29c-.19,0-.25-.14-.25-.29.11-.42.26-.84.44-1.23h1.38c.07.23.32,1.03.37,1.26s0,.23-.19.23h-.18v.19s0,.07.07.07h1.93v-.2s.01-.07-.03-.07h-.22c-.16-.02-.3-.13-.36-.28-.09-.18-.49-1.34-.64-1.83-.14-.49-.62-1.81-.73-2.2,0-.07,0-.11-.07-.11h0ZM60.73,44.5c-.13,0-.27,0-.4.01h-1.97v.19h.36c.1,0,.18,0,.2.19.02.19.02,3.68.02,3.81,0,.1-.08.14-.21.14h-.32v.16h2.06c.75.06,1.48-.18,2.06-.66.42-.45.65-1.04.62-1.66.02-.61-.23-1.2-.7-1.6-.5-.37-1.11-.57-1.73-.59h0ZM38,44.53c-.63-.02-1.23.22-1.67.68-.43.47-.66,1.08-.65,1.71,0,.63.25,1.23.69,1.68.46.41,1.06.62,1.68.58.75,0,1.45-.4,1.85-1.03v-.07l-.1-.09h-.09c-.36.45-.91.7-1.48.68-.4,0-.77-.17-1.03-.48-.37-.46-.57-1.04-.56-1.64.07-.9.46-1.73,1.38-1.73.39.01.77.18,1.03.48.24.23.41.52.5.85,0,.05,0,.08.08.06h.13v-.08c0-.08-.14-1.26-.14-1.38s0-.1-.1-.1h-.12v.17h-.14c-.39-.19-.82-.28-1.26-.27h0ZM46.71,44.7v.18h.15c.32,0,.54.36.54.73v.57c0,.94,0,1.94-.06,2.06,0,.42-.13.62-.27.62h-.22v.16h1.43v-.22h-.17c-.26,0-.37-.19-.39-.55-.02-.36-.06-1.03-.06-1.53v-1.23h.04c.14.21,1.74,2.16,2.19,2.7s.69.77.79.88c.06.07.15.1.25.1.09,0,.09-.11.09-.2v-1.03c0-.82.1-2.24.14-2.67,0-.23.08-.34.2-.34h.17v-.15h-1.45v.15h.2c.15,0,.29.1.33.25,0,.09,0,.71.06.96.06.25,0,.63,0,1.18v.57l-2.53-3.09c-.04-.06-.11-.09-.19-.08h-1.28ZM60.26,44.88c.07,0,.13,0,.2.02.47.02.92.22,1.25.57.33.38.51.87.51,1.37,0,.51-.15,1.02-.44,1.44-.28.37-.72.6-1.19.61-.24.08-.51-.05-.59-.29-.02-.06-.03-.13-.02-.19v-3.22c-.02-.11.03-.22.12-.28.05-.01.1-.02.15-.02h0ZM43.08,45.31c.07,0,0,0,.07.14.07.13.41,1.48.47,1.67h-1.25c.05-.15.6-1.65.63-1.73.03-.08,0-.07.07-.07h0ZM54.69,45.31c.07,0,0,0,.07.14.07.13.41,1.48.47,1.67h-1.25c0-.15.6-1.65.63-1.73.03-.08,0-.07.07-.07h0ZM66.37,45.31c.08,0,0,0,.06.14.06.13.42,1.48.47,1.67h-1.23c0-.15.59-1.65.62-1.73.03-.08,0-.07.08-.07h0Z"/>
      <path id="path5936" class="cls-1" d="M34.1,7.61c-.52.02-1.05.09-1.56.2-2.14.42-4.25,1.03-6.38,1.53-.95.17-1.9.28-2.86.33h-.2c-.12.01-.22.11-.23.24v.16c0,.11.08.2.18.21,0,0,0,0,.01,0h.14c.73-.05,1.41.73,1.42,1.88v22.49c.01,1.15-.68,1.95-1.41,1.89h-.17c-.1,0-.19.07-.2.17,0,0,0,0,0,0v.22c0,.1.07.18.16.19,0,0,0,0,0,0h.23c.97.05,1.94.16,2.9.32,2.13.46,4.24,1.1,6.38,1.53,1.13.24,2.3.28,3.45.1,3.21-.58,5.6-2.64,7.36-5.6,1.67-3.09,2.55-6.55,2.54-10.07.17-3.54-.71-7.04-2.54-10.07-1.76-2.98-4.12-5.03-7.36-5.6-.63-.1-1.26-.13-1.89-.1h0ZM57.59,7.92c-.1,0-.18.09-.18.19v.25c0,.09.06.16.15.17.38.03.74.19,1.03.43.31.5.47,1.09.44,1.68v26.77c.05.61-.1,1.21-.43,1.72-.29.28-.65.49-1.03.61-.06.03-.11.09-.11.16v.34c0,.1.08.18.17.18.02,0,.04,0,.06-.01.59-.21,2.06-.73,2.65-.88.59-.14,2.06-.42,2.52-.5.09-.02.15-.1.14-.19v-.22c0-.1-.07-.18-.17-.18-.01,0-.03,0-.04,0-.21.05-.43.02-.63-.08-.41-.25-.34-1.03-.34-2.15v-12.66c0-.19.15-.35.34-.36,0,0,.01,0,.02,0h13.04c.2,0,.36.16.37.36v10.07c.02.58-.13,1.14-.44,1.63-.29.28-.65.49-1.03.62-.08.02-.13.09-.12.17v.26c0,.1.09.18.19.18.02,0,.03,0,.05,0,.59-.21,2.06-.74,2.65-.88.59-.14,2.06-.42,2.52-.51.08-.02.14-.09.14-.17v-.15c0-.1-.07-.18-.17-.18-.02,0-.03,0-.05,0-.21.05-.44.02-.63-.08-.41-.25-.34-1.03-.34-2.14V12.23c0-1.09,0-1.8.38-2.06.19-.1.4-.16.62-.15.1,0,.18-.08.19-.18v-.11c0-.1-.07-.18-.16-.19,0,0-.01,0-.02,0h-2.54c-.87-.08-1.74-.22-2.61-.39-.09-.02-.19.03-.21.13,0,.02,0,.03,0,.05v.16c0,.08.05.16.14.18.38.1.74.28,1.03.54.31.46.46,1,.43,1.56v9.85c0,.2-.17.36-.37.36h-13.05c-.2,0-.36-.16-.36-.36h0v-10.51c0-1.03,0-1.79.38-2.06.19-.1.4-.15.62-.14.1,0,.18-.08.19-.17v-.14c0-.1-.07-.18-.16-.18,0,0,0,0,0,0-.47,0-1.71,0-2.56-.06-.89-.09-1.77-.23-2.64-.43-.01,0-.03,0-.04,0h0ZM34.55,8.8c1.61.04,3.16.64,4.37,1.71,1.28,1.15,2.22,2.63,2.72,4.28.6,1.93,1.02,3.91,1.23,5.92.15,1.78.15,3.57,0,5.36-.16,2.02-.57,4.01-1.23,5.92-.5,1.65-1.44,3.13-2.72,4.28-1.75,1.54-4.16,2.09-6.41,1.45-1.22-.32-2.41-.76-3.54-1.33-1.04-.54-1.65-1.65-1.54-2.82V13.21c-.13-1.17.49-2.3,1.54-2.82,1.14-.53,2.33-.98,3.54-1.33.66-.19,1.35-.28,2.03-.26Z"/>
      <path id="path5940" class="cls-1" d="M351.1,13.91c-.07,0-.21.06-.21.31l-.85,3.22c-.03.07,0,.15.07.17l.35.12c.08.03.13-.04.2-.12.33-.6.99-1.75,1.56-2,.84-.2,1.69-.28,2.55-.25h.49l.05,4.38c0,.36,0,5.71-.05,6.18-.03.29-.29.5-.59.48h-1.03c-.07,0-.12.03-.12.13v.4c0,.15-.11.15.14.15s.88-.05,2.77-.05,2.45.05,2.63.05.17-.06.17-.17v-.37c0-.09-.04-.15-.1-.15h-1.03c-.42,0-.6-.35-.6-1.69v-9.34h.49c.91-.04,1.82.07,2.7.32.57.57,1.04,1.23,1.38,1.96.05.14.08.14.15.14l.35-.12c.07-.02.07-.05.07-.15-.14-.84-.49-3.11-.52-3.33-.03-.22-.07-.28-.18-.28s-.17.06-.32.17c-.38.23-.81.39-1.26.45-.8.03-1.54.1-3.47.1h-.94c-1.72,0-2.45-.1-3.4-.1-.44.02-.88-.14-1.2-.45-.1-.11-.2-.17-.28-.17h0ZM172.75,14.05c-.08,0-.15.07-.26.17-.52.39-1.11.69-1.73.88-.18.04-.18.1-.18.18.01.08.05.15.1.22.14.1,0,.41,0,.59l-1.71,4.59c-.53,1.46-1.79,4.61-1.97,4.93-.31.55-.63.79-1.11.79h-.52c-.11,0-.11.03-.11.14v.33c0,.12-.12.23.11.23s.75-.05,1.93-.05,2.07.05,2.2.05.13-.06.13-.17v-.44c0-.08-.03-.08-.17-.08h-.73c-.35,0-.63-.2-.63-.42-.01-.12-.01-.25,0-.37.06-.47.95-2.97,1.09-3.38h4.05c.19.65.89,2.88,1.03,3.52.1.47-.03.65-.52.65h-.45c-.14,0-.15.03-.15.14v.35c0,.1.04.21.18.21.39,0,.98-.05,2.45-.05,1.93,0,2.27.05,2.59.05.18,0,.17-.1.17-.21v-.37c0-.11-.04-.11-.14-.11h-.54c-.5-.04-.93-.35-1.12-.81-.25-.47-1.37-3.73-1.78-5.09-.32-1.12-1.69-5.04-2-6.12-.04-.1-.13-.32-.22-.32h0ZM227.14,14.05c-.08,0-.15.07-.26.17-.52.39-1.11.69-1.74.88-.18.04-.17.1-.17.18.01.08.05.16.11.22.14.1,0,.41,0,.59l-1.71,4.59c-.53,1.46-1.79,4.61-1.97,4.93-.18.47-.62.78-1.12.79h-.53c-.1,0-.1.03-.1.14v.33c0,.12-.14.23.1.23s.74-.05,1.93-.05,2.08.05,2.22.05.13-.06.13-.17v-.44c0-.08-.03-.08-.17-.08h-.73c-.35,0-.63-.2-.63-.42-.01-.12-.01-.25,0-.37.05-.47.95-2.97,1.08-3.38h4.08c.19.65.89,2.88,1.03,3.52.1.47-.04.65-.52.65h-.45c-.14,0-.14.03-.14.14v.35c0,.1.03.21.17.21.39,0,.98-.05,2.45-.05,1.93,0,2.28.05,2.6.05.18,0,.17-.1.17-.21v-.37c0-.11-.04-.11-.14-.11h-.56c-.5-.04-.93-.35-1.12-.81-.25-.47-1.37-3.73-1.79-5.09-.31-1.12-1.68-5.04-1.99-6.12-.04-.1-.13-.32-.22-.32h0ZM273.35,14.05c-.09,0-.17.07-.27.17-.52.39-1.1.69-1.73.88-.18.04-.18.1-.18.18.02.08.05.15.1.22.13.1,0,.41,0,.59l-1.72,4.59c-.53,1.46-1.78,4.61-1.96,4.93-.32.55-.63.79-1.12.79h-.52c-.1,0-.1.03-.1.14v.33c0,.12-.14.23.1.23s.7-.05,1.93-.05,2.06.05,2.2.05.14-.06.14-.17v-.44c0-.08-.04-.08-.17-.08h-.74c-.35,0-.63-.2-.63-.42-.02-.12-.02-.25,0-.37.05-.47.94-2.97,1.08-3.38h4.09c.2.65.9,2.88,1.03,3.52.1.47-.03.65-.52.65h-.45c-.13,0-.13.03-.13.14v.35c0,.1.03.21.17.21.38,0,.98-.05,2.44-.05,1.93,0,2.28.05,2.6.05.18,0,.17-.1.17-.21v-.37c0-.11-.03-.11-.14-.11h-.56c-.5-.04-.93-.35-1.12-.81-.25-.47-1.36-3.73-1.78-5.09-.32-1.12-1.68-5.04-2-6.12-.03-.1-.11-.32-.2-.32h0ZM331.85,14.05c-.08,0-.15.07-.26.17-.52.39-1.11.69-1.74.88-.18.04-.17.1-.17.18.01.08.05.15.1.22.14.1,0,.41,0,.59l-1.68,4.59c-.53,1.46-1.78,4.61-1.96,4.93-.18.47-.62.78-1.12.79h-.52c-.06,0-.08.01-.09.04-.37,0-.73-.12-1.03-.34-.26-.25-1.34-1.78-1.48-2s-1.23-1.85-1.43-2.14c-.26-.36-.62-.64-1.03-.8v-.07c1.93-.34,3.25-1.22,3.25-3.43-.03-.76-.37-1.47-.95-1.96-.89-.75-2.02-1.14-3.18-1.1h-5.49c-.12,0-.12.03-.12.12v.48c0,.1.04.1.12.1h.68c.32,0,.57.28.57.88v9.64c0,.47-.28.59-.66.59h-.6c-.1,0-.1.05-.1.14v.4c0,.1-.04.15.14.15s.49-.05,2.32-.05,2.27.05,2.4.05.19-.03.19-.15v-.42c0-.06-.03-.11-.13-.11h-.88c-.28,0-.38-.4-.45-.67-.07-.27-.07-2.24-.07-3.27l-.09-.99h.56c.74,0,1.14.42,1.58,1.03.28.39.82,1.2.95,1.51.12.31.84,1.56,1.15,2.06.21.38.47.72.77,1.03.38-.05,1.05-.05,1.54-.05,1.01,0,1.37.04,1.56.05.01,0,.01,0,.03,0,0,0,.05,0,.06,0,0,0,.05,0,.06,0,0,0,0,0,.01,0,.26,0,.65-.05,1.79-.05,1.23,0,2.06.05,2.2.05s.15-.06.15-.17v-.44c0-.08-.03-.08-.18-.08h-.73c-.35,0-.63-.2-.63-.42-.01-.12-.01-.25,0-.37,0-.47.9-2.97,1.03-3.38h4.1c.19.65.89,2.88,1.03,3.52.1.47-.04.65-.52.65h-.46c-.13,0-.13.03-.13.14v.35c0,.1.03.21.17.21.39,0,.98-.05,2.45-.05,1.93,0,2.28.05,2.59.05.18,0,.17-.1.17-.21v-.37c0-.11-.03-.11-.13-.11h-.57c-.5-.04-.93-.35-1.11-.81-.25-.47-1.37-3.73-1.79-5.09-.31-1.12-1.68-5.04-2-6.12-.03-.1-.12-.32-.21-.32h0ZM305.75,14.41c-1.63,0-3.19.66-4.32,1.83-1.17,1.28-1.81,2.95-1.79,4.69-.02,1.76.66,3.47,1.9,4.73,1.24,1.15,2.89,1.75,4.58,1.65,2.13-.03,4.09-1.14,5.22-2.95.04-.05.04-.12,0-.17l-.3-.28c-.05-.05-.11,0-.21.12-.99,1.31-2.54,2.08-4.18,2.06-1.16.03-2.27-.47-3.02-1.37-1.06-1.27-1.64-2.87-1.65-4.52,0-2.51,1.15-5.03,3.95-5.03,1.17-.03,2.29.45,3.09,1.3.62.65,1.08,1.43,1.36,2.28.06.18.11.17.2.17l.34-.11c.06,0,.06-.06.06-.17-.06-.55-.42-3.36-.42-3.64s-.02-.28-.24-.28-.28,0-.28.1l-.14.45c-.04.14-.1.14-.35,0-1.09-.56-2.3-.85-3.53-.85-.09,0-.18,0-.27,0h0ZM348.01,14.52c-.22.04-.44.06-.67.07h-8.82c-.07,0-.14.03-.14.1v.5c0,.09.07.09.14.09h.88c.45,0,.7.29.7.48v4.63c0,3.02-.03,5.27-.05,5.57-.02.3-.16.37-.58.37h-.7c-.1,0-.1.03-.1.1v.48c0,.11.03.11.1.11.25,0,.76-.05,2.48-.05s2.46.05,2.59.05.14-.03.14-.14v-.44c0-.11-.03-.11-.14-.11h-.94c-.42,0-.56-.07-.56-.57v-4.35c.67-.01,1.34.02,2.01.1.39.1.71.36.88.72.12.26.21.54.27.82,0,.13.06.13.13.13l.39-.07c.1,0,.1-.05.1-.17-.04-.35-.1-1.18-.1-1.81v-2c0-.1-.03-.1-.1-.1h-.35c-.07,0-.14.07-.14.15-.06.31-.17.61-.31.9-.19.36-.53.61-.93.68-.62.07-1.25.1-1.87.08l.06-5.62c.66,0,2.94.07,3.39.16.48.12.9.41,1.19.8.47.5.89,1.03,1.26,1.61.11.14.14.15.22.15l.33-.15c.05,0,.05-.07.05-.13-.07-.22-.7-2.76-.7-2.9s-.03-.25-.1-.25h0ZM144.37,14.59s0,0-.01,0h-6.76c-1.42.07-2.07,0-2.45,0-.1,0-.1.03-.1.12v.45c0,.12.03.12.1.12h.63c.53,0,.7.13.77.61.07.25.07,2.42.07,3.85v5.88c0,.65-.07.76-.88.76h-.6c-.18,0-.17.03-.17.14v.42c0,.13.04.14.14.14h9.63c.17.01.33-.09.38-.26l.85-2.63c.04-.05.04-.12,0-.17l-.28-.18c-.07-.03-.12-.02-.2.07-.51.65-1.05,1.26-1.63,1.85-.42.32-.91.52-1.43.6-.35.07-1.15.07-1.47.07-.46.01-.91-.04-1.36-.14-.39-.1-.7-.45-.7-1.37,0-.31-.06-2.03-.06-2.98v-1.13c.7,0,1.39.04,2.07.11.39.03.72.27.87.63.11.29.21.58.28.88.04.12.07.12.14.12l.38-.07c.14-.02.14-.03.14-.12-.04-.38-.1-1.23-.1-1.93v-1.9c.02-.13-.03-.14-.1-.14h-.45c-.07-.01-.13.03-.14.1,0,.01,0,.02,0,.03-.03.36-.12.71-.28,1.03-.13.34-.44.59-.8.63-.66.07-1.33.1-2,.09v-5.06l2.67.07c.47.04.93.2,1.33.45.69.6,1.34,1.25,1.93,1.96.05.09.15.09.15.09l.32-.14c.05-.03.12-.02.05-.2-.07-.18-.74-2.55-.8-2.78,0-.06-.07-.11-.13-.1h0ZM150.98,14.59c-.09,0-.16.08-.16.17,0,0,0,0,0,0v.37c0,.08.03.15.17.15h.76c.57,0,.67.25.67,1.12v9.16c0,.4-.07.82-.49.82h-.91c-.18,0-.17.03-.17.14v.4c0,.09.03.15.17.15.35,0,.87-.05,2.59-.05,1.43,0,2.03.05,2.34.05.18,0,.17-.06.17-.17v-.41c0-.11-.03-.11-.17-.11h-.63c-.38,0-.6-.17-.6-.6-.06-1.22-.06-3.25-.06-3.87v-.75c0-.15.05-.23.23-.23h5.72c.24,0,.38.05.38.21v.49c0,.31-.07,3.11-.07,3.95-.02.47-.03.79-.45.79h-.95c-.13,0-.13.05-.13.14v.4c0,.07.03.15.13.15.49,0,1.2-.05,2.7-.05s2.2.05,2.38.05.17-.06.17-.17v-.41c0-.06-.03-.11-.14-.11h-.7c-.51,0-.69-.25-.69-.88v-9.33c0-.62.03-.9.56-.9h.63c.21,0,.21-.07.21-.17v-.37c0-.08.04-.15-.21-.15h-4.8c-.13,0-.13.05-.13.13v.41c0,.1,0,.15.13.15h.81c.38,0,.46.31.46.88.02.19.09,2.64.09,3.27v.52c0,.19-.07.24-.35.24h-5.78c-.15,0-.2-.06-.2-.24v-.7c0-.46.08-2.77.08-3.02.02-.68.09-.96.72-.96h.63c.18,0,.17-.07.17-.17v-.37c0-.08-.03-.15-.17-.15h-5.11s-.01,0-.02,0h0ZM236.86,14.59s-.03,0-.05,0h-3.37c-.1,0-.1.03-.1.1v.47c0,.07.03.12.1.12h.57c.76,0,1.36.82,1.36,1.85v2.22c0,2.8-.12,5.25-.12,5.56-.08,1.07-.33,1.46-.78,1.46h-.6c-.06,0-.1.05-.1.1v.43c0,.15-.07.15.1.15s1.37-.05,1.82-.05c.66,0,1.74.05,1.88.05s.14-.03.14-.14v-.4c0-.09,0-.15-.14-.15h-.45c-.63,0-.88-.42-.88-1.3-.03-.55-.17-2.99-.17-5.97v-2.11h.13c.18.25,3.06,3.71,3.27,3.99.21.28,1.58,1.93,2.8,3.43,1.13,1.3,2.03,2.39,2.16,2.56.16.16.37.26.6.28.21,0,.21-.25.21-.49v-4.64c0-1.79.18-4.72.27-5.91.05-.65.23-.93.58-.93h.49c.1,0,.1-.07.1-.17v-.4c0-.05.04-.12-.18-.12h-3.64c-.13,0-.13.03-.13.13v.41c0,.08,0,.15.1.15h.56c.42-.01.8.26.93.66.09.3.19,2.02.19,2.68v5.12h-.06c-.29-.35-3.02-3.75-3.25-4.03-.35-.49-3.79-4.8-3.96-4.98-.09-.1-.23-.15-.36-.15h0ZM285.14,14.59s0,0-.01,0h-5.32c-.1,0-.1.03-.1.12v.45c0,.12.03.12.14.12h.91c.49,0,.67.17.72.6.05.23.05,3.38.05,3.8v1.21c0,.95-.07,4.73-.07,4.98-.07.51-.45.51-.8.51h-.7c-.14,0-.14.03-.14.1v.48c0,.11-.03.11.14.11s1.06-.05,2.7-.05,2.45.05,2.55.05.17-.03.17-.14v-.44c0-.11-.07-.11-.14-.11h-.73c-.42,0-.7-.07-.7-.64v-5.76s.01-4.23.01-4.23c0-.34.28-.47.66-.47h.66c.07,0,.14-.05.14-.12,0,0,0-.01,0-.02v-.4c.01-.07-.04-.14-.11-.15,0,0-.01,0-.02,0h0ZM120.11,14.59c-.09,0-.17.03-.17.1v.47c0,.07.07.13.14.12,0,0,0,0,0,0h.95c.35,0,.6.22.63.48.03.27.1,2.75.1,3.2v1.34c0,1.31-.04,5.3-.09,5.6s-.23.44-.58.44h-1.03c-.13,0-.14.03-.14.1v.43c0,.15.03.15.1.15.25,0,.95-.05,2.48-.05.88,0,2.67.05,3.33.05,1.19,0,3.92-.01,5.64-1.86,1.17-1.23,1.79-2.89,1.71-4.59.06-1.7-.67-3.32-1.98-4.41-1.61-1.37-3.5-1.59-5.85-1.59h-5.26ZM177.38,14.59c-.1,0-.1.03-.1.13v.41c0,.1.03.15.1.15h.38c.35-.01.66.22.75.56.19.51.96,2.75,1.41,4.01.61,1.64,2.07,5.64,2.67,7.13.08.22.18.4.38.4.15,0,.29-.09.35-.23.18-.36,2.28-5.48,2.63-6.25.49-1.15,1.55-3.88,2.12-4.81.25-.48.74-.79,1.28-.8h.42c.13,0,.13-.05.13-.14v-.43c0-.12,0-.12-.13-.12h-4.12c-.13,0-.14.03-.14.13l-.02.44c0,.08.05.14.12.15h.49c.48,0,.66.28.66.48-.34,1.43-.8,2.83-1.36,4.19-.18.53-1.3,3.38-1.72,4.41-.28-.94-1.23-3.71-1.47-4.38-.35-1.01-1.02-3.08-1.14-3.71-.04-.2-.06-.4-.05-.6,0-.26.29-.43.74-.43h.83c.14,0,.14-.05.14-.17v-.39c0-.13-.03-.13-.18-.13h-5.18ZM190.28,14.59c-.1,0-.1.03-.1.12v.45c0,.12.03.12.13.12h.92c.48,0,.71.17.71.6.05.23.05,3.38.05,3.8v1.21c0,.95-.06,4.73-.06,4.98-.07.51-.46.51-.81.51h-.7c-.13,0-.13.03-.13.1v.48c0,.11-.04.11.13.11s1.05-.05,2.7-.05,2.44.05,2.55.05.18-.03.18-.14v-.44c0-.11-.06-.11-.14-.11h-.74c-.41,0-.7-.07-.7-.64v-9.99c0-.34.29-.47.67-.47h.67c.07,0,.13-.06.13-.13,0,0,0,0,0,0v-.4c0-.08.11-.15-.13-.15h-5.32ZM197.68,14.59c-.14,0-.14.03-.14.13v.41c0,.08.06.15.14.15h.73c.45,0,.57.17.57.63.06.3.06,2.15.06,3.28v.98c0,1.05-.06,5.52-.06,5.75s-.11.47-.74.47h-.7c-.1,0-.1.03-.1.14v.4c0,.15-.06.15.15.15s.83-.05,2.41-.05c1.79,0,6.83.05,7.28.05.11-.46.88-3.38.88-3.48v-.17l-.31-.07c-.1-.03-.13,0-.2.07-.29.66-1.37,2.76-2.35,2.9-.98.08-1.96.11-2.94.09h-1.03c-.06-.73-.06-4.54-.06-4.85v-1.51c0-1.26.06-3.87.06-4.12,0-.47.07-.65.6-.65h.95c.18,0,.17-.07.17-.14v-.4c0-.08-.03-.15-.17-.15h-5.18ZM209.06,14.59c-.14,0-.14.03-.14.13v.41c0,.08.06.15.14.15h.73c.45,0,.57.17.57.63.06.3.06,2.15.06,3.28v.98c0,1.05-.06,5.52-.06,5.75s-.11.47-.74.47h-.7c-.1,0-.1.03-.1.14v.4c0,.15-.06.15.14.15s.84-.05,2.41-.05c1.79,0,6.83.05,7.28.05.11-.46.88-3.38.88-3.48v-.17l-.31-.07c-.1-.03-.14,0-.21.07-.29.66-1.32,2.76-2.35,2.9-.98.08-1.96.11-2.94.09h-1.03c-.06-.73-.06-4.54-.06-4.85v-1.51c0-1.26.06-3.87.06-4.12,0-.47.07-.65.6-.65h.95c.18,0,.17-.07.17-.14v-.4c0-.08-.03-.15-.17-.15h-5.18ZM248.08,14.59c-.09,0-.17.03-.17.1v.47c0,.07.07.13.14.12,0,0,0,0,0,0h.95c.35,0,.6.22.63.48.03.27.1,2.75.1,3.2l.02,1.34c0,1.33-.07,5.33-.12,5.63s-.23.44-.58.44h-1.03c-.14,0-.14.03-.14.1v.43c0,.15.03.15.1.15.25,0,.95-.05,2.49-.05.88,0,2.66.05,3.33.05,1.18,0,3.91-.01,5.63-1.86,1.17-1.23,1.79-2.89,1.71-4.59.07-1.7-.65-3.34-1.96-4.44-1.61-1.37-3.5-1.59-5.85-1.59h-5.26ZM287.33,14.59c-.12,0-.12.03-.12.12v.48c0,.1.04.1.12.1h.68c.32,0,.57.28.57.88v9.64c0,.47-.28.59-.66.59h-.6c-.1,0-.1.05-.1.14v.4c0,.1-.04.15.13.15s.5-.05,2.32-.05,2.26.05,2.4.05.19-.03.19-.15v-.42c0-.06-.03-.11-.13-.11h-.88c-.28,0-.38-.4-.45-.67-.07-.27-.07-2.24-.07-3.27l-.09-.99h.56c.74,0,1.14.42,1.57,1.03.28.39.82,1.2.95,1.51.12.31.84,1.56,1.15,2.06.21.38.47.72.77,1.03.38-.05,1.05-.05,1.54-.05,1.11,0,1.57.05,1.71.05s.14-.05.14-.17v-.37c0-.07-.04-.12-.14-.12-.44.04-.88-.07-1.25-.33-.26-.25-1.34-1.78-1.48-2s-1.23-1.85-1.43-2.14c-.26-.36-.62-.64-1.03-.8v-.07c1.93-.34,3.25-1.22,3.25-3.43-.03-.76-.37-1.47-.95-1.96-.89-.75-2.02-1.14-3.18-1.1h-5.49ZM125.17,15.19c.08,0,.15,0,.23,0,1.47.01,2.88.61,3.93,1.65.88,1.08,1.38,2.43,1.4,3.82.02,1.43-.42,2.83-1.27,3.98-.87,1.12-2.22,1.77-3.64,1.77-.56.07-1.12-.1-1.54-.47-.21-.28-.32-.63-.31-.98v-8.83c0-.35.06-.63.31-.77.28-.12.59-.18.89-.19h0ZM253.17,15.19c.08,0,.15,0,.23,0,1.47.01,2.88.6,3.92,1.65.88,1.08,1.38,2.43,1.4,3.82.01,1.43-.44,2.83-1.3,3.98-.87,1.12-2.21,1.78-3.64,1.77-.56.07-1.12-.1-1.54-.47-.21-.28-.31-.63-.31-.98v-4.27l.03-1.26v-3.3c-.04-.29.07-.59.31-.77.28-.12.58-.18.89-.19h0ZM291.46,15.21s.09,0,.13,0c.84-.04,1.66.22,2.32.75.5.53.77,1.23.76,1.96-.04,1.71-1.45,3.06-3.15,3.02-.04,0-.09,0-.13,0-.22-.01-.45-.03-.67-.07l.04-5.03c-.02-.2.06-.39.2-.52.16-.07.33-.1.5-.11h0ZM317.2,15.21s.09,0,.13,0c.84-.04,1.66.22,2.32.75.5.53.77,1.23.76,1.96-.04,1.71-1.45,3.06-3.15,3.02-.04,0-.09,0-.13,0-.22-.01-.45-.03-.67-.07l.04-5.03c-.02-.2.06-.39.2-.52.16-.07.33-.1.5-.11h0ZM171.43,16.36c.07,0,.07-.04.17.31.1.35,1.3,4.35,1.47,4.85h-3.64c.12-.4,1.72-4.77,1.77-4.93s.15-.23.23-.23ZM225.83,16.36c.07,0,.07-.04.17.31.1.35,1.3,4.35,1.47,4.85h-3.64c.12-.4,1.72-4.77,1.77-4.93s.15-.23.23-.23ZM272.01,16.36c.06,0,.07-.04.18.31.1.35,1.29,4.35,1.46,4.85h-3.64c.12-.4,1.7-4.77,1.76-4.93.06-.16.18-.23.24-.23ZM330.51,16.36c.07,0,.07-.04.18.31.1.35,1.3,4.35,1.47,4.85h-3.65c.12-.4,1.72-4.77,1.77-4.93s.15-.23.23-.23Z"/>
      <path id="path5978" class="cls-1" d="M278.24,35.54c-.07,0-.2.06-.2.31l-.85,3.22c-.03.07,0,.15.07.17l.35.12c.08.03.13-.04.2-.12.33-.6.99-1.75,1.56-2,.84-.2,1.69-.28,2.55-.25h.49l.05,4.38c0,.36,0,5.72-.05,6.18-.03.29-.3.5-.59.47h-1.03c-.07,0-.12.03-.12.14v.4c0,.15-.11.15.13.15h5.4c.18,0,.17-.06.17-.17v-.37c0-.09-.04-.15-.1-.15h-1.03c-.42,0-.6-.35-.6-1.69v-9.34h.49c.91-.04,1.82.07,2.7.32.57.57,1.03,1.23,1.38,1.96.05.14.08.14.15.14l.35-.12c.07-.02.07-.05.07-.15-.14-.84-.49-3.11-.52-3.33-.03-.22-.07-.28-.17-.28s-.18.06-.32.17c-.38.23-.81.39-1.25.45-.8.03-1.54.1-3.47.1h-.94c-1.72,0-2.45-.1-3.4-.1-.44.02-.88-.14-1.19-.45-.1-.11-.21-.17-.28-.17h0ZM169.94,35.67c-.09,0-.15.07-.27.18-.52.4-1.1.69-1.73.88-.18.04-.17.1-.17.17.01.08.05.15.1.22.14.1,0,.41,0,.59l-1.72,4.59c-.53,1.46-1.78,4.61-1.96,4.93-.32.55-.63.79-1.12.79h-.52c-.1,0-.1.03-.1.13v.33c0,.12-.14.23.1.23h4.13c.14,0,.14-.06.14-.16v-.44c0-.08-.03-.08-.17-.08h-.73c-.35,0-.64-.2-.64-.42-.02-.12-.02-.25,0-.37.05-.47.95-2.98,1.08-3.38h4.1c.19.65.88,2.88,1.03,3.52.1.47-.04.65-.52.65h-.46c-.13,0-.14.03-.14.13v.35c0,.1.03.2.18.2h5.03c.18,0,.18-.1.18-.2v-.37c0-.11-.03-.11-.14-.11h-.57c-.49-.04-.93-.35-1.11-.81-.25-.47-1.37-3.73-1.79-5.09-.31-1.12-1.68-5.1-2-6.13-.03-.1-.11-.32-.21-.32h0ZM197.08,35.67c-.08,0-.15.07-.26.18-.52.39-1.11.69-1.73.88-.18.04-.17.1-.17.17.01.08.05.15.1.22.14.1,0,.41,0,.59l-1.71,4.59c-.53,1.46-1.79,4.61-1.97,4.93-.31.55-.63.79-1.11.79h-.52c-.11,0-.11.03-.11.13v.33c0,.12-.12.23.11.23h4.13c.13,0,.13-.06.13-.16v-.44c0-.08-.03-.08-.17-.08h-.73c-.35,0-.63-.2-.63-.42-.01-.12-.01-.25,0-.37.06-.47.95-2.98,1.09-3.38h4.07c.19.65.89,2.88,1.03,3.52.1.47-.03.65-.52.65h-.45c-.14,0-.14.03-.14.13v.35c0,.1.04.2.17.2h5.04c.18,0,.18-.1.18-.2v-.37c0-.11-.04-.11-.14-.11h-.56c-.5-.04-.93-.36-1.12-.81-.25-.47-1.37-3.73-1.78-5.09-.32-1.12-1.69-5.1-2-6.13-.04-.1-.13-.32-.22-.32h0ZM224.38,35.67c-.08,0-.15.07-.26.18-.52.39-1.11.69-1.73.88-.18.04-.18.1-.18.17.02.08.05.15.1.22.14.1,0,.41,0,.59l-1.71,4.59c-.53,1.46-1.79,4.61-1.97,4.93-.31.55-.63.79-1.11.79h-.51c-.11,0-.11.03-.11.13v.33c0,.12-.12.23.11.23h4.13c.13,0,.13-.06.13-.16v-.44c0-.08-.03-.08-.17-.08h-.73c-.35,0-.63-.2-.63-.42-.01-.12-.01-.25,0-.37.06-.47.95-2.98,1.09-3.38h4.06c.19.65.89,2.88,1.03,3.52.1.47-.03.65-.52.65h-.45c-.14,0-.14.03-.14.13v.35c0,.1.04.2.17.2h5.05c.18,0,.17-.1.17-.2v-.37c0-.11-.04-.11-.14-.11h-.56c-.5-.04-.93-.35-1.12-.81-.25-.47-1.37-3.73-1.78-5.09-.32-1.12-1.69-5.1-2-6.13-.04-.1-.13-.32-.22-.32h0ZM126.7,36.03c-1.83-.03-3.58.78-4.74,2.2-1.01,1.22-1.58,2.76-1.61,4.35-.05,2.03.91,3.96,2.55,5.15,1.2.72,2.56,1.12,3.96,1.15,2.05.1,4.02-.83,5.25-2.48.86-1.1,1.32-2.46,1.3-3.85.03-1.99-.84-3.88-2.38-5.15-1.16-.94-2.63-1.42-4.12-1.36-.07,0-.14,0-.22,0h0ZM156.56,36.04c-1.63,0-3.2.66-4.34,1.83-1.17,1.28-1.81,2.95-1.78,4.69-.02,1.76.65,3.46,1.88,4.73,2.69,2.4,6.82,2.16,9.22-.53.21-.24.41-.49.58-.76.04-.05.04-.12,0-.18l-.3-.28c-.05-.05-.12,0-.22.12-.98,1.31-2.54,2.08-4.18,2.06-1.16.03-2.27-.48-3.01-1.37-1.05-1.28-1.62-2.9-1.61-4.56,0-2.51,1.16-5.04,3.96-5.04,1.14,0,2.23.5,3.01,1.34.62.65,1.09,1.42,1.37,2.27.05.18.1.18.2.18l.33-.11c.07,0,.07-.06.07-.18-.07-.55-.42-3.35-.42-3.63s-.04-.28-.25-.28-.28,0-.28.1l-.14.45c-.03.14-.1.14-.35,0-1.09-.56-2.3-.85-3.53-.84-.07,0-.15,0-.22,0h0ZM144.65,36.14c-.22.04-.44.06-.67.07h-8.83c-.07,0-.13.03-.13.1v.51c0,.09.06.09.13.09h.97c.45,0,.7.29.7.49v4.63c0,3.02-.03,5.27-.05,5.57-.02.3-.16.37-.59.37h-.71c-.05,0-.1.03-.1.08,0,0,0,.01,0,.02v.47c0,.11.04.11.1.11h5.08c.14,0,.15-.03.15-.13v-.44c0-.11-.03-.11-.15-.11h-.94c-.42,0-.57-.07-.57-.57v-4.36c.69-.02,1.38.02,2.06.1.38.1.7.36.88.72.11.27.2.54.26.82.02.13.07.14.14.14l.38-.07c.1,0,.1-.05.1-.18-.03-.35-.1-1.18-.1-1.81v-2c0-.1-.04-.1-.11-.1h-.35c-.06,0-.13.07-.13.14-.06.31-.17.61-.32.9-.19.36-.53.61-.93.68-.62.07-1.25.1-1.88.08v-5.6c.68,0,2.96.07,3.41.16.48.13.9.41,1.19.8.47.5.89,1.03,1.26,1.61.1.14.15.15.21.15l.34-.15v-.13c0-.19-.7-2.78-.7-2.93s-.04-.25-.1-.25h0ZM235.09,36.16c-.14,0-.15.03-.15.14v.41c0,.08.06.15.15.15h.73c.45,0,.5.33.57.63.06.3.06,2.15.06,3.28v1.03c0,1.05-.06,5.52-.06,5.75s-.11.48-.74.48h-.7c-.1,0-.1.03-.1.13v.4c0,.15-.06.15.14.15h9.69c.1-.46.88-3.38.88-3.48v-.17l-.31-.12c-.1-.03-.14,0-.21.07-.29.66-1.32,2.76-2.35,2.91-.98.08-1.96.11-2.93.09h-1.03c-.06-.73-.06-4.54-.06-4.85v-1.51c0-1.26.06-3.87.06-4.12,0-.47.07-.65.6-.65h.95c.18,0,.18-.07.18-.14v-.4c0-.08-.03-.15-.18-.15h-5.18ZM253.2,36.19c-.06,0-.11.04-.12.1v.47c0,.07.05.12.12.12,0,0,0,0,.01,0h.77c.77,0,.86.4.86,1.03v2.99c0,.32-.11,4.63-.26,5.85-.09.61-.28,1.25-.87,1.25h-.8c-.11,0-.11.1-.11.1v.43c0,.15-.07.15.14.15h4.27c.18,0,.17-.06.17-.13v-.44c0-.05-.04-.11-.14-.11h-.77c-.56,0-.76-.67-.83-1.47-.09-1.14-.09-4.11-.09-4.33s.02-4.62.09-4.87c.21.22,1.82,4.13,2.13,4.94.1.28,2.38,5.62,2.45,5.84.07.22.1.32.28.32s.32-.21.39-.38c.07-.18,1.92-4.42,2.13-4.87.21-.45,2.42-5.56,2.56-5.81h.07v4.93l.02.99c0,1.42-.05,3.94-.05,4.12-.05.5-.19.62-.51.62h-1.08c-.14,0-.14.03-.14.13v.4c0,.09-.09.15.14.15h5.21c.14,0,.14-.06.14-.17v-.41c0-.05,0-.11-.1-.11h-.94c-.32,0-.49-.29-.49-.95v-5.13c0-.46,0-3.98,0-4.35s.05-.68.5-.68h.77c.13,0,.13-.07.13-.18v-.37c0-.08.1-.15-.1-.15h-3.36c-.42,0-.69.03-.69.21-.08.35-1.66,3.95-1.98,4.69-.45,1.03-1.7,3.92-1.85,4.23-.51-1.43-2.98-7.24-3.61-8.88-.05-.19-.23-.32-.42-.3h-4.03s0,0-.01,0h0ZM179.64,36.21s-.04,0-.05,0h-3.36c-.1,0-.1.03-.1.1v.48c0,.07.03.12.1.12h.56c.77,0,1.37.82,1.37,1.85v2.23c0,2.8-.12,5.25-.12,5.56-.08,1.07-.33,1.46-.78,1.46h-.6c-.06,0-.1.04-.1.1,0,0,0,0,0,0v.43c0,.15-.07.15.1.15h3.7c.14,0,.15-.03.15-.13v-.4c0-.09,0-.15-.15-.15h-.45c-.63,0-.87-.42-.87-1.3-.03-.55-.18-3-.18-5.97l.03-2.11h.1c.22.25,3.04,3.71,3.25,3.98s1.57,1.93,2.8,3.43c1.09,1.3,2.04,2.39,2.17,2.56.16.16.37.26.6.28.21,0,.21-.24.21-.49v-4.65c0-1.79.18-4.71.27-5.91.05-.65.22-.93.57-.93h.48c.11,0,.11-.07.11-.17v-.4c0-.05.04-.12-.17-.12h-3.64c-.14,0-.15.03-.15.13v.41c0,.08,0,.15.11.15h.56c.42-.01.8.26.93.66.09.3.2,2.02.2,2.68v5.12h-.06c-.29-.35-3.02-3.75-3.27-4.03-.35-.49-3.78-4.8-3.95-4.97-.1-.1-.23-.16-.37-.16h0ZM203.7,36.22c-.08,0-.15.03-.15.1v.48c0,.07.07.13.14.12h.94c.35,0,.61.22.64.49.03.27.1,2.75.1,3.2v1.34c0,1.33-.06,5.33-.11,5.63s-.23.44-.58.44h-1.03c-.13,0-.13.03-.13.1v.43c0,.15.03.15.1.15h5.81c1.19,0,3.92,0,5.63-1.86,1.18-1.23,1.81-2.89,1.72-4.59.07-1.7-.65-3.34-1.96-4.44-1.62-1.37-3.5-1.6-5.85-1.6h-5.27ZM246.17,36.22c-.1,0-.1.03-.1.12v.45c0,.12.03.12.13.12h.92c.48,0,.66.18.71.6v5.01c0,.95-.06,4.73-.06,4.97-.07.51-.46.52-.81.52h-.7c-.13,0-.13.03-.13.1v.47c0,.11-.04.11.13.11h5.25c.11,0,.17-.03.17-.13v-.44c0-.11-.06-.11-.13-.11h-.74c-.41,0-.7-.07-.7-.64v-4.39l.05-1.37v-4.23c0-.34.29-.48.67-.48h.67c.07,0,.13-.06.14-.13,0,0,0,0,0-.01v-.4c0-.08.11-.15-.14-.15h-5.32ZM270.69,36.22c-.1,0-.1.03-.1.12v.45c0,.12.04.12.14.12h.91c.49,0,.72.18.72.6.05.23.05,3.38.05,3.8v1.22c0,.95-.07,4.73-.07,4.97-.06.51-.45.52-.8.52h-.7c-.14,0-.14.03-.14.1v.47c0,.11-.03.11.14.11h5.25c.1,0,.18-.03.18-.13v-.44c0-.11-.07-.11-.15-.11h-.73c-.42,0-.7-.07-.7-.64v-9.99c0-.34.28-.48.67-.48h.66c.07,0,.14-.05.14-.12,0,0,0-.01,0-.02v-.4c.01-.07-.04-.14-.11-.15-.01,0-.02,0-.03,0h-5.32ZM291.16,36.22c-.1,0-.1.03-.1.12v.45c0,.12.03.12.1.12h.67c.53,0,.7.13.76.61.07.25.07,2.42.07,3.85v5.85c0,.65-.07.76-.87.76h-.6c-.18,0-.17.03-.17.14v.42c0,.13.04.13.14.13h9.63c.17.01.33-.09.38-.26l.85-2.62c.06-.08.05-.18,0-.18l-.29-.17c-.06-.03-.12-.02-.19.07-.34.42-1.32,1.58-1.63,1.85-.44.34-.96.56-1.51.63-.35.07-1.16.07-1.48.07-.46.01-.91-.04-1.36-.14-.39-.1-.7-.45-.7-1.37v-4.06c.69,0,1.37.04,2.06.11.39.03.73.27.88.63.12.28.21.58.28.88.04.12.07.12.14.12l.38-.07c.14-.02.14-.03.14-.12-.03-.38-.1-1.23-.1-1.93v-1.9c.02-.13-.03-.13-.1-.13h-.45c-.07-.01-.13.03-.14.1,0,.01,0,.02,0,.03-.03.34-.13.67-.28.98-.13.35-.44.59-.8.63-.66.07-1.33.1-2,.09v-5.06l2.67.07c.47.04.93.19,1.33.45.69.6,1.34,1.25,1.93,1.96.05.09.1.09.15.09l.32-.14c.05-.03.12-.02.05-.2-.07-.18-.78-2.68-.8-2.78-.02-.1-.05-.1-.15-.1h-6.75c-1.42.07-2.07,0-2.45,0h0ZM302.87,36.22c-.09,0-.16.03-.16.1v.48c0,.07.07.13.14.12h.95c.35,0,.6.22.63.49.03.27.1,2.75.1,3.2l.02,1.34c0,1.33-.07,5.33-.12,5.63s-.23.44-.58.44h-1.03c-.14,0-.15.03-.15.1v.43c0,.15.03.15.1.15h5.81c1.19,0,3.92,0,5.64-1.86,1.17-1.23,1.79-2.89,1.71-4.59.07-1.7-.65-3.34-1.96-4.44-1.61-1.37-3.5-1.6-5.85-1.6h-5.26ZM126.61,36.77c.1,0,.2,0,.3.02,1.68,0,4.27,2.17,4.27,5.99,0,1.46-.59,5.39-4.12,5.39-1.47,0-4.27-1.63-4.27-6.18-.04-1.55.5-3.06,1.51-4.24h.03c.58-.63,1.41-.99,2.27-.98h0ZM307.98,36.81c.08,0,.15,0,.23.01,1.47.01,2.88.6,3.92,1.65.88,1.08,1.38,2.43,1.4,3.82.02,1.43-.42,2.83-1.27,3.99-.87,1.15-2.24,1.83-3.69,1.82-.56.07-1.12-.1-1.54-.47-.22-.3-.33-.66-.31-1.03v-4.27l.05-1.25v-3.3c-.05-.29.07-.59.31-.77.28-.12.59-.18.89-.19h0ZM208.78,36.87c.08,0,.15,0,.23.01,1.47.01,2.88.6,3.91,1.65.89,1.07,1.39,2.42,1.4,3.82.02,1.43-.42,2.83-1.25,3.98-.88,1.12-2.22,1.78-3.65,1.77-.66,0-1.33-.14-1.53-.47-.23-.29-.34-.66-.32-1.03v-8.77c-.04-.3.08-.59.32-.77.28-.12.59-.18.89-.19h0ZM168.6,37.99c.07,0,.07-.04.17.31.1.35,1.3,4.35,1.47,4.85h-3.64c.12-.4,1.72-4.77,1.77-4.93s.15-.23.23-.23h0ZM195.77,37.99c.07,0,.07-.04.17.31.1.35,1.3,4.35,1.47,4.85h-3.64c.12-.4,1.72-4.77,1.77-4.93s.15-.23.23-.23ZM223.1,37.99c.07,0,.07-.04.18.31.1.35,1.3,4.35,1.47,4.85h-3.65c.12-.4,1.72-4.77,1.77-4.93s.15-.23.23-.23Z"/>
    </g>
  </g>
</svg>