<?xml version="1.0" encoding="UTF-8"?>
<svg id="Layer_2" data-name="Layer 2" xmlns="http://www.w3.org/2000/svg" viewBox="0 0 163.83 51.32">
  <defs>
    <style>
      .cls-1 {
        fill: #ed1b2e;
      }

      .cls-1, .cls-2 {
        stroke-width: 0px;
      }

      .cls-2 {
        fill: #fff;
      }
    </style>
  </defs>
  <g id="Presentation">
    <g>
      <rect class="cls-1" width="47.67" height="35.69"/>
      <polygon class="cls-2" points="44.2 7.06 40.61 7.06 40.61 3.48 35.78 3.48 35.78 7.06 32.2 7.06 32.2 11.89 35.78 11.89 35.78 15.48 40.61 15.48 40.61 11.89 44.2 11.89 44.2 7.06"/>
      <polygon class="cls-2" points="5.52 .78 .65 .78 .65 6.18 42.14 34.91 47.02 34.91 47.02 29.53 5.52 .78"/>
      <g>
        <path class="cls-1" d="M3.86,42.04H1.07c-.24,0-.43.17-.43.38v8.4c0,.21.19.38.43.38h2.78c3.08,0,4.65-1.54,4.65-4.57s-1.56-4.57-4.65-4.57ZM2.68,43.69h1.11c1.89,0,2.65.85,2.65,2.92s-.77,2.92-2.65,2.92h-1.11v-5.85Z"/>
        <path class="cls-1" d="M11.35,42.04h-1.18c-.24,0-.43.17-.43.38v8.4c0,.21.19.38.43.38h1.18c.24,0,.43-.17.43-.38v-8.4c0-.21-.19-.38-.43-.38Z"/>
        <path class="cls-1" d="M21.09,42.04h-1.33c-.18,0-.35.1-.41.26l-2.35,6.18-2.34-6.18c-.06-.15-.22-.26-.41-.26h-1.32c-.14,0-.27.06-.35.16s-.1.23-.05.34l3.43,8.4c.06.15.22.25.4.25h1.27c.18,0,.34-.1.4-.25l3.44-8.4c.05-.12.03-.24-.05-.34s-.21-.16-.35-.16Z"/>
        <path class="cls-1" d="M28.42,49.54h-4.16v-2.1h3.3c.24,0,.43-.17.43-.38v-.89c0-.21-.19-.38-.43-.38h-3.3v-2.1h4.08c.24,0,.43-.17.43-.38v-.9c0-.21-.19-.38-.43-.38h-5.69c-.24,0-.43.17-.43.38v8.4c0,.21.19.38.43.38h5.77c.24,0,.43-.17.43-.38v-.9c0-.21-.19-.38-.43-.38Z"/>
        <path class="cls-1" d="M35.53,47.46c1.42-.36,2.17-1.25,2.17-2.62,0-1.28-.65-2.8-3.77-2.8h-3.51c-.24,0-.43.17-.43.38v8.4c0,.21.19.38.43.38h1.18c.24,0,.43-.17.43-.38v-3.19h1.4l2.17,3.37c.08.12.22.19.37.19h1.32c.15,0,.3-.07.37-.19.08-.12.08-.26,0-.38l-2.13-3.16ZM32.03,43.64h1.9c1.53,0,1.71.68,1.71,1.2,0,.55-.2,1.18-1.76,1.18h-1.85v-2.38Z"/>
        <path class="cls-1" d="M42.69,45.73l-.51-.16c-1.22-.38-1.68-.57-1.68-1.12,0-.82.89-.91,1.27-.91.67,0,1.7.26,2.45.62.2.09.45.04.57-.13l.55-.77c.06-.09.08-.19.05-.29-.03-.1-.1-.18-.21-.23-.79-.39-2.18-.84-3.46-.84-1.98,0-3.31,1.05-3.31,2.61,0,1.81,1.82,2.38,2.8,2.69l.14.04c1.46.46,2.29.76,2.29,1.46,0,.92-1.16.97-1.39.97-.88,0-2.09-.44-2.84-.84-.2-.11-.46-.05-.59.12l-.55.77c-.12.17-.06.4.13.51.93.52,2.44,1.08,3.86,1.08,2.07,0,3.46-1.08,3.46-2.68,0-1.96-2.06-2.6-3.05-2.91Z"/>
      </g>
      <g>
        <path class="cls-1" d="M56.22,42.29c-.06-.15-.22-.25-.4-.25h-1.28c-.18,0-.34.1-.4.25l-3.4,8.4c-.05.11-.03.24.05.34s.21.16.35.16h1.25c.18,0,.35-.1.4-.26l.66-1.79h3.41l.68,1.79c.06.15.22.26.4.26h1.26c.14,0,.27-.06.35-.16s.1-.23.05-.34l-3.4-8.4ZM56.28,47.53h-2.21l1.1-2.93,1.11,2.93Z"/>
        <path class="cls-1" d="M66.3,49.54h-3.91v-7.12c0-.21-.19-.38-.42-.38h-1.17c-.23,0-.42.17-.42.38v8.4c0,.21.19.38.42.38h5.5c.23,0,.42-.17.42-.38v-.9c0-.21-.19-.38-.42-.38Z"/>
        <path class="cls-1" d="M73.6,49.54h-4.13v-2.1h3.27c.23,0,.42-.17.42-.38v-.89c0-.21-.19-.38-.42-.38h-3.27v-2.1h4.04c.23,0,.42-.17.42-.38v-.9c0-.21-.19-.38-.42-.38h-5.64c-.23,0-.42.17-.42.38v8.4c0,.21.19.38.42.38h5.72c.23,0,.42-.17.42-.38v-.9c0-.21-.19-.38-.42-.38Z"/>
        <path class="cls-1" d="M80.65,47.46c1.41-.36,2.15-1.25,2.15-2.62,0-1.28-.65-2.8-3.74-2.8h-3.48c-.23,0-.42.17-.42.38v8.4c0,.21.19.38.42.38h1.17c.23,0,.42-.17.42-.38v-3.19h1.39l2.15,3.37c.08.12.22.19.37.19h1.3c.15,0,.29-.07.37-.19.08-.12.08-.26,0-.38l-2.11-3.16ZM77.18,43.64h1.88c1.52,0,1.69.68,1.69,1.2,0,.55-.2,1.18-1.75,1.18h-1.83v-2.38Z"/>
        <path class="cls-1" d="M90.05,42.04h-6.67c-.23,0-.42.17-.42.38v.9c0,.21.19.38.42.38h2.32v7.12c0,.21.19.38.42.38h1.17c.23,0,.42-.17.42-.38v-7.12h2.33c.23,0,.42-.17.42-.38v-.9c0-.21-.19-.38-.42-.38Z"/>
      </g>
      <g>
        <path class="cls-1" d="M102.53,42.04h-1.18c-.24,0-.43.17-.43.38v5.37l-3.72-5.56c-.08-.12-.22-.19-.37-.19h-1.22c-.24,0-.43.17-.43.38v8.4c0,.21.19.38.43.38h1.18c.24,0,.43-.17.43-.38v-5.35l3.72,5.54c.08.12.22.19.37.19h1.22c.24,0,.43-.17.43-.38v-8.4c0-.21-.19-.38-.43-.38Z"/>
        <path class="cls-1" d="M110.85,49.54h-4.18v-2.1h3.31c.24,0,.43-.17.43-.38v-.89c0-.21-.19-.38-.43-.38h-3.31v-2.1h4.09c.24,0,.43-.17.43-.38v-.9c0-.21-.19-.38-.43-.38h-5.71c-.24,0-.43.17-.43.38v8.4c0,.21.19.38.43.38h5.79c.24,0,.43-.17.43-.38v-.9c0-.21-.19-.38-.43-.38Z"/>
        <path class="cls-1" d="M130.68,42.04h-1.31c-.2,0-.38.12-.42.29l-1.43,5.54-1.51-5.54c-.05-.17-.22-.29-.42-.29h-1.06c-.2,0-.37.12-.42.29l-1.52,5.54-1.42-5.53c-.04-.17-.22-.29-.42-.29h-1.31c-.13,0-.26.05-.34.15-.02.03-.03.06-.05.09-.06-.14-.22-.24-.4-.24h-6.75c-.24,0-.43.17-.43.38v.9c0,.21.19.38.43.38h2.35v7.12c0,.21.19.38.43.38h1.18c.24,0,.43-.17.43-.38v-7.12h2.36c.24,0,.43-.17.43-.38v-.6l2.41,8.19c.05.17.22.28.42.28h1.24c.2,0,.37-.12.42-.29l1.48-5.33,1.48,5.33c.05.17.22.29.42.29h1.25c.2,0,.37-.12.42-.28l2.47-8.4c.03-.11,0-.23-.08-.32-.08-.09-.21-.15-.34-.15Z"/>
        <path class="cls-1" d="M135.83,41.91c-2.78,0-4.38,1.71-4.38,4.71s1.6,4.7,4.38,4.7,4.39-1.71,4.39-4.7-1.6-4.71-4.39-4.71ZM135.83,49.67c-1.52,0-2.29-1.03-2.29-3.05s.77-3.06,2.29-3.06,2.31,1.03,2.31,3.06-.78,3.05-2.31,3.05Z"/>
        <path class="cls-1" d="M147.01,47.46c1.43-.36,2.18-1.25,2.18-2.62,0-1.28-.66-2.8-3.78-2.8h-3.52c-.24,0-.43.17-.43.38v8.4c0,.21.19.38.43.38h1.18c.24,0,.43-.17.43-.38v-3.19h1.41l2.17,3.37c.08.12.22.19.38.19h1.32c.15,0,.3-.07.37-.19.08-.12.08-.26,0-.38l-2.13-3.16ZM143.5,43.64h1.91c1.54,0,1.71.68,1.71,1.2,0,.55-.2,1.18-1.77,1.18h-1.85v-2.38Z"/>
        <path class="cls-1" d="M158.19,50.58l-3.8-4.16,3.44-3.77c.1-.11.12-.27.05-.4s-.22-.21-.39-.21h-1.44c-.13,0-.26.05-.34.15l-3.31,3.75v-3.52c0-.21-.19-.38-.43-.38h-1.18c-.24,0-.43.17-.43.38v8.4c0,.21.19.38.43.38h1.18c.24,0,.43-.17.43-.38v-2.21l.75-.82,2.94,3.26c.08.09.21.14.34.14h1.43c.17,0,.32-.08.39-.21.07-.13.05-.28-.05-.4Z"/>
      </g>
      <path class="cls-1" d="M65.78.34h-13.49v34.57h13.49c8.79,0,19.28-3,19.28-17.28S74.58.34,65.78.34ZM61.63,7.33h3.88c6.06,0,10.1,1.75,10.1,10.3s-4.04,10.3-10.1,10.3h-3.88V7.33Z"/>
      <path class="cls-1" d="M102.98.34l-.14-.34-.14.34h-5.31l-14.12,34.57h10l3.1-6.27h13l3.12,6.27h10.05L108.95.34h-5.97ZM99.2,20.55l3.66-8.87,3.69,8.87h-7.36Z"/>
      <polygon class="cls-1" points="148.28 .34 148.61 25.42 136.95 .34 123.95 .34 123.95 34.91 132.17 34.91 132.17 8.64 144.17 34.75 157.5 34.91 157.5 .34 148.28 .34"/>
      <path class="cls-1" d="M161.39,4.32h-.56v1.09h-.32v-2.58h.94c.53,0,.9.2.9.74,0,.46-.26.67-.65.72l.65,1.11h-.35l-.61-1.09ZM161.46,3.1h-.63v.96h.61c.34,0,.59-.13.59-.48s-.25-.48-.57-.48Z"/>
      <path class="cls-1" d="M161.44,6.51c-1.32,0-2.39-1.07-2.39-2.39s1.07-2.39,2.39-2.39,2.39,1.07,2.39,2.39-1.07,2.39-2.39,2.39ZM161.44,2.14c-1.1,0-1.99.89-1.99,1.99s.89,1.99,1.99,1.99,1.99-.89,1.99-1.99-.89-1.99-1.99-1.99Z"/>
    </g>
  </g>
</svg>