<?xml version="1.0" encoding="UTF-8"?>
<svg id="Layer_2" data-name="Layer 2" xmlns="http://www.w3.org/2000/svg" viewBox="0 0 456.9 153.11">
  <defs>
    <style>
      .cls-1 {
        fill: #006eb7;
      }

      .cls-1, .cls-2, .cls-3 {
        stroke-width: 0px;
      }

      .cls-2 {
        fill: #0086cb;
      }

      .cls-3 {
        fill: #231f20;
      }
    </style>
  </defs>
  <g id="Presentation">
    <g>
      <g>
        <g>
          <rect class="cls-3" x="177.4" y="45.46" width="2.11" height="14.45"/>
          <polygon class="cls-3" points="187.37 49.11 195.6 59.91 197.58 59.91 197.58 45.46 195.47 45.46 195.47 56.26 187.24 45.46 185.26 45.46 185.26 59.91 187.37 59.91 187.37 49.11"/>
          <polygon class="cls-3" points="208.01 59.91 210.12 59.91 210.12 47.49 214.8 47.49 214.8 45.46 203.33 45.46 203.33 47.49 208.01 47.49 208.01 59.91"/>
          <polygon class="cls-3" points="231.07 57.87 222.68 57.87 222.68 53.57 230.24 53.57 230.24 51.54 222.68 51.54 222.68 47.49 231.07 47.49 231.07 45.46 220.55 45.46 220.55 59.91 231.07 59.91 231.07 57.87"/>
          <path class="cls-3" d="M238.93,54.9h3.28l3.52,5h2.45l-3.68-5.25c2.18-.61,3.61-2.37,3.61-4.48,0-2.69-2.32-4.72-5.39-4.72h-5.92v14.45h2.11v-5ZM238.93,47.49h3.52c2.19,0,3.54,1.03,3.54,2.69s-1.36,2.69-3.54,2.69h-3.52v-5.38Z"/>
          <polygon class="cls-3" points="256.05 49.11 264.28 59.91 266.25 59.91 266.25 45.46 264.14 45.46 264.14 56.26 255.91 45.46 253.93 45.46 253.93 59.91 256.05 59.91 256.05 49.11"/>
          <path class="cls-3" d="M275.7,56.75h7.41l1.4,3.16h2.31l-6.3-14.29-.07-.16h-2.07l-6.37,14.45h2.31l1.4-3.16ZM276.59,54.71l2.83-6.39,2.81,6.39h-5.64Z"/>
          <polygon class="cls-3" points="304.03 45.46 292.56 45.46 292.56 47.49 297.24 47.49 297.24 59.91 299.36 59.91 299.36 47.49 304.03 47.49 304.03 45.46"/>
          <rect class="cls-3" x="309.78" y="45.46" width="2.11" height="14.45"/>
          <path class="cls-3" d="M325.04,60.15c4,0,7.38-3.42,7.38-7.48s-3.38-7.46-7.38-7.46-7.4,3.42-7.4,7.46,3.39,7.48,7.4,7.48ZM325.04,47.21c2.84,0,5.24,2.5,5.24,5.47s-2.4,5.49-5.24,5.49-5.26-2.51-5.26-5.49,2.41-5.47,5.26-5.47Z"/>
          <polygon class="cls-3" points="340.27 49.11 348.5 59.91 350.48 59.91 350.48 45.46 348.37 45.46 348.37 56.26 340.14 45.46 338.16 45.46 338.16 59.91 340.27 59.91 340.27 49.11"/>
          <path class="cls-3" d="M371.04,59.91l-6.3-14.29-.07-.16h-2.07l-6.37,14.45h2.31l1.4-3.16h7.41l1.4,3.16h2.31ZM366.46,54.71h-5.64l2.83-6.39,2.81,6.39Z"/>
          <polygon class="cls-3" points="386.5 57.87 378.91 57.87 378.91 45.46 376.79 45.46 376.79 59.91 386.5 59.91 386.5 57.87"/>
        </g>
        <g>
          <polygon class="cls-3" points="179.45 77.01 186.87 77.01 186.87 83.14 188.91 83.14 188.91 69.16 186.87 69.16 186.87 75.04 179.45 75.04 179.45 69.16 177.4 69.16 177.4 83.14 179.45 83.14 179.45 77.01"/>
          <polygon class="cls-3" points="200.89 83.14 203.02 83.14 203.02 77.48 208.65 69.16 206.19 69.16 201.96 75.48 197.76 69.16 195.23 69.16 200.89 77.48 200.89 83.14"/>
          <path class="cls-3" d="M220.7,69.16h-5.73v13.98h2.04v-4.84h3.68c2.97,0,5.22-1.96,5.22-4.57s-2.24-4.57-5.22-4.57ZM217.02,71.13h3.41c2.11,0,3.43,1,3.43,2.6s-1.31,2.6-3.43,2.6h-3.41v-5.21Z"/>
          <polygon class="cls-3" points="242.42 81.18 234.31 81.18 234.31 77.01 241.62 77.01 241.62 75.04 234.31 75.04 234.31 71.13 242.42 71.13 242.42 69.16 232.24 69.16 232.24 83.14 242.42 83.14 242.42 81.18"/>
          <path class="cls-3" d="M250.79,78.3h3.17l3.41,4.84h2.37l-3.56-5.08c2.11-.59,3.5-2.29,3.5-4.33,0-2.61-2.24-4.57-5.22-4.57h-5.73v13.98h2.04v-4.84ZM250.79,71.13h3.41c2.11,0,3.43,1,3.43,2.6s-1.31,2.6-3.43,2.6h-3.41v-5.21Z"/>
          <path class="cls-3" d="M276.99,79.2c0-1.41-.78-2.64-2.2-3.48,1.16-.78,1.67-1.68,1.67-2.95,0-2.09-1.67-3.61-3.96-3.61h-6.43v13.98h6.67c2.47,0,4.26-1.66,4.26-3.94ZM274.93,79.01c0,1.31-1.06,2.23-2.58,2.23h-4.23v-4.46h4.23c1.52,0,2.58.92,2.58,2.23ZM272.11,74.87h-3.99v-3.8h3.99c1.35,0,2.29.78,2.29,1.9s-.94,1.9-2.29,1.9Z"/>
          <path class="cls-3" d="M291.48,69.16h-2l-6.17,13.98h2.23l1.35-3.06h7.17l1.35,3.06h2.23l-6.1-13.83-.07-.15ZM293.21,78.12h-5.46l2.74-6.18,2.72,6.18Z"/>
          <path class="cls-3" d="M314.98,83.14l-3.56-5.08c2.11-.59,3.5-2.29,3.5-4.33,0-2.61-2.24-4.57-5.22-4.57h-5.73v13.98h2.04v-4.84h3.17l3.41,4.84h2.37ZM306.02,71.13h3.41c2.11,0,3.43,1,3.43,2.6s-1.31,2.6-3.43,2.6h-3.41v-5.21Z"/>
          <rect class="cls-3" x="321.3" y="69.16" width="2.04" height="13.98"/>
          <path class="cls-3" d="M329.67,76.14c0,3.92,3.28,7.24,7.16,7.24,1.84,0,3.67-.78,5.02-2.13l.18-.18-1.41-1.43-.18.19c-.97,1.03-2.29,1.62-3.61,1.62-2.76,0-5.09-2.43-5.09-5.31s2.33-5.29,5.09-5.29c1.32,0,2.64.59,3.61,1.62l.18.19,1.4-1.43-.18-.18c-1.36-1.38-3.14-2.13-5.02-2.13-3.88,0-7.16,3.3-7.16,7.22Z"/>
          <polygon class="cls-3" points="366.48 74.58 358.84 74.58 358.84 68.53 356.73 68.53 356.73 82.92 358.84 82.92 358.84 76.61 366.48 76.61 366.48 82.92 368.58 82.92 368.58 68.53 366.48 68.53 366.48 74.58"/>
          <polygon class="cls-3" points="374.61 82.92 385.09 82.92 385.09 80.9 376.73 80.9 376.73 76.61 384.26 76.61 384.26 74.58 376.73 74.58 376.73 70.56 385.09 70.56 385.09 68.53 374.61 68.53 374.61 82.92"/>
          <path class="cls-3" d="M399.52,68.53h-2.06l-6.35,14.39h2.3l1.39-3.15h7.38l1.39,3.15h2.3l-6.28-14.23-.07-.16ZM401.3,77.75h-5.62l2.82-6.36,2.8,6.36Z"/>
          <polygon class="cls-3" points="414 68.53 411.9 68.53 411.9 82.92 421.57 82.92 421.57 80.9 414 80.9 414 68.53"/>
          <polygon class="cls-3" points="427.59 70.56 432.25 70.56 432.25 82.92 434.36 82.92 434.36 70.56 439.02 70.56 439.02 68.53 427.59 68.53 427.59 70.56"/>
          <polygon class="cls-3" points="454.79 68.53 454.79 74.58 447.15 74.58 447.15 68.53 445.05 68.53 445.05 82.92 447.15 82.92 447.15 76.61 454.79 76.61 454.79 82.92 456.9 82.92 456.9 68.53 454.79 68.53"/>
        </g>
        <g>
          <path class="cls-3" d="M188.16,102.6c-.97,1.03-2.29,1.62-3.61,1.62-2.76,0-5.09-2.43-5.09-5.3s2.33-5.28,5.09-5.28c1.32,0,2.64.59,3.61,1.62l.18.19,1.4-1.43-.18-.18c-1.35-1.37-3.14-2.13-5.02-2.13-3.87,0-7.15,3.3-7.15,7.21s3.27,7.22,7.15,7.22c1.83,0,3.66-.78,5.02-2.13l.18-.18-1.4-1.43-.18.19Z"/>
          <polygon class="cls-3" points="196.17 105.91 206.33 105.91 206.33 103.95 198.23 103.95 198.23 99.78 205.53 99.78 205.53 97.82 198.23 97.82 198.23 93.91 206.33 93.91 206.33 91.95 196.17 91.95 196.17 105.91"/>
          <polygon class="cls-3" points="222.61 102.38 214.66 91.95 212.75 91.95 212.75 105.91 214.79 105.91 214.79 95.47 222.74 105.91 224.66 105.91 224.66 91.95 222.61 91.95 222.61 102.38"/>
          <polygon class="cls-3" points="231.08 93.91 235.6 93.91 235.6 105.91 237.64 105.91 237.64 93.91 242.16 93.91 242.16 91.95 231.08 91.95 231.08 93.91"/>
          <polygon class="cls-3" points="248.58 105.91 258.75 105.91 258.75 103.95 250.64 103.95 250.64 99.78 257.94 99.78 257.94 97.82 250.64 97.82 250.64 93.91 258.75 93.91 258.75 91.95 248.58 91.95 248.58 105.91"/>
          <path class="cls-3" d="M276.09,96.51c0-2.6-2.24-4.56-5.21-4.56h-5.72v13.96h2.04v-4.83h3.17l3.41,4.83h2.37l-3.55-5.07c2.1-.59,3.49-2.29,3.49-4.33ZM267.21,93.91h3.4c2.11,0,3.42,1,3.42,2.6s-1.31,2.6-3.42,2.6h-3.4v-5.2Z"/>
          <path class="cls-3" d="M288.62,97.85c-2.32-.55-3.42-1.02-3.42-2.18s1.18-2.07,2.62-2.07c1.29,0,2.56.57,3.68,1.65l.21.2,1.26-1.61-.18-.16c-1.45-1.34-3.05-1.99-4.89-1.99-2.71,0-4.76,1.76-4.76,4.09,0,2.48,1.76,3.39,4.6,4.05,2.56.6,3.42,1.18,3.42,2.29,0,1.04-.89,2.09-2.87,2.09-1.61,0-2.95-.59-4.22-1.86l-.2-.2-1.28,1.6.17.16c1.49,1.47,3.33,2.21,5.49,2.21,3.03,0,4.99-1.62,4.99-4.13,0-2.69-2.21-3.58-4.6-4.15Z"/>
          <rect class="cls-3" x="309.99" y="91.94" width="2.04" height="13.98"/>
          <polygon class="cls-3" points="328.71 102.39 320.74 91.94 318.83 91.94 318.83 105.92 320.87 105.92 320.87 95.47 328.84 105.92 330.75 105.92 330.75 91.94 328.71 91.94 328.71 102.39"/>
          <path class="cls-3" d="M348.31,102.6c-.97,1.03-2.29,1.62-3.61,1.62-2.76,0-5.09-2.43-5.09-5.31s2.33-5.29,5.09-5.29c1.32,0,2.64.59,3.61,1.62l.18.19,1.4-1.43-.18-.18c-1.36-1.38-3.14-2.13-5.02-2.13-3.88,0-7.16,3.31-7.16,7.22s3.28,7.23,7.16,7.23c1.84,0,3.67-.78,5.02-2.13l.18-.18-1.41-1.43-.18.19Z"/>
          <path class="cls-3" d="M358.25,103.38c-.71,0-1.29.56-1.29,1.26s.58,1.29,1.29,1.29,1.26-.58,1.26-1.29-.58-1.26-1.26-1.26Z"/>
        </g>
      </g>
      <circle class="cls-1" cx="23.2" cy="57.44" r="21.56"/>
      <circle class="cls-1" cx="42.45" cy="127.31" r="15.8"/>
      <circle class="cls-1" cx="62.47" cy="40.42" r="15.8"/>
      <circle class="cls-1" cx="95.26" cy="46.94" r="12.97"/>
      <circle class="cls-1" cx="31.14" cy="24.63" r="7.97"/>
      <circle class="cls-1" cx="9.6" cy="90.84" r="9.6"/>
      <circle class="cls-1" cx="116.97" cy="27.67" r="11"/>
      <circle class="cls-1" cx="110.38" cy="89.12" r="11"/>
      <circle class="cls-2" cx="41.27" cy="91.05" r="11"/>
      <circle class="cls-2" cx="24.72" cy="104.29" r="7.71"/>
      <circle class="cls-2" cx="9.6" cy="109.13" r="5.35"/>
      <circle class="cls-1" cx="2.93" cy="76.55" r="2.68"/>
      <circle class="cls-1" cx="48.04" cy="73.88" r="2.68"/>
      <circle class="cls-1" cx="49.91" cy="13.63" r="6.29"/>
      <circle class="cls-1" cx="44.16" cy="28.09" r="3.46"/>
      <circle class="cls-2" cx="132.88" cy="57.41" r="18.74"/>
      <circle class="cls-2" cx="91.63" cy="127.33" r="23.56"/>
      <circle class="cls-2" cx="142.83" cy="83.83" r="4.82"/>
      <circle class="cls-2" cx="128.87" cy="85.27" r="3.38"/>
      <circle class="cls-1" cx="116.97" cy="106.14" r="3.38"/>
      <circle class="cls-2" cx="127.97" cy="121.71" r="6.84"/>
      <circle class="cls-2" cx="62.47" cy="146.27" r="6.84"/>
      <circle class="cls-1" cx="61.24" cy="106.78" r="7.71"/>
      <circle class="cls-2" cx="97.59" cy="13.63" r="7.78"/>
      <circle class="cls-2" cx="87.76" cy="28.33" r="5.01"/>
      <circle class="cls-2" cx="73.81" cy="10.7" r="10.7"/>
      <circle class="cls-1" cx="102.29" cy="68.72" r="5.01"/>
      <circle class="cls-1" cx="18.18" cy="119.5" r="5.01"/>
      <circle class="cls-1" cx="135.63" cy="101.53" r="10.47"/>
    </g>
  </g>
</svg>