<?xml version="1.0" encoding="UTF-8"?>
<svg id="Layer_2" data-name="Layer 2" xmlns="http://www.w3.org/2000/svg" viewBox="0 0 162.57 33.58">
  <defs>
    <style>
      .cls-1 {
        fill: #000;
        stroke-width: 0px;
      }
    </style>
  </defs>
  <g id="Presentation">
    <g>
      <g>
        <g>
          <path class="cls-1" d="M41.59,3.79h-1.86v4.86h-1.28V3.79h-1.93v-1.14h5.07v1.14Z"/>
          <path class="cls-1" d="M49.34,2.65v6h-1.27v-2.43h-2.73v2.43h-1.28V2.65h1.28v2.41h2.73v-2.41h1.27Z"/>
          <path class="cls-1" d="M56.77,7.55v1.07h-3.92V2.62h3.83v1.07h-2.55v1.33h2.38v1.04h-2.38v1.49h2.64Z"/>
        </g>
        <g>
          <path class="cls-1" d="M63.63,6.27v-3.62h1.26v3.46c0,1.05.46,1.58,1.34,1.58s1.32-.53,1.32-1.58v-3.46h1.23v3.62c0,1.6-.94,2.5-2.57,2.5s-2.58-.89-2.58-2.5Z"/>
          <path class="cls-1" d="M72.12,2.65h1.2l2.93,3.93h.03v-3.93h1.21v6h-1.31l-2.85-3.83h-.03v3.83h-1.18V2.65Z"/>
          <path class="cls-1" d="M80.75,2.65h1.28v6h-1.28V2.65Z"/>
          <path class="cls-1" d="M90.19,2.68l-2.52,6.03h-.8l-2.44-6.03v-.03h1.35l1.43,3.83.12.46.11-.46,1.48-3.83h1.26v.03Z"/>
          <path class="cls-1" d="M96.57,7.58v1.07h-3.92V2.65h3.83v1.07h-2.55v1.33h2.38v1.04h-2.38v1.49h2.64Z"/>
          <path class="cls-1" d="M104.28,8.61v.04h-1.38l-1.26-2.06h-.67v2.06h-1.27V2.65c.62-.05,1.08-.06,1.83-.06,1.33,0,2.48.47,2.48,1.96,0,1-.49,1.59-1.14,1.86l1.41,2.21ZM100.97,5.62h.6c.67,0,1.16-.34,1.16-.96s-.39-.99-1.08-.99c-.29,0-.52,0-.68.03v1.92Z"/>
          <path class="cls-1" d="M107,8.36v-1.2h.03c.47.32,1,.51,1.61.51s1-.24,1-.68c0-.4-.22-.63-1.06-1-.75-.32-1.5-.78-1.5-1.72,0-1.21.97-1.76,2.09-1.76.77,0,1.21.12,1.55.27v1.11l-.03.02c-.36-.21-.84-.3-1.35-.31-.61,0-.99.18-.99.56s.41.55,1.1.86c.8.36,1.46.85,1.46,1.9,0,1.11-.84,1.82-2.13,1.82-.87,0-1.34-.17-1.77-.4Z"/>
          <path class="cls-1" d="M114.32,2.65h1.28v6h-1.28V2.65Z"/>
          <path class="cls-1" d="M122.99,3.79h-1.86v4.86h-1.28V3.79h-1.93v-1.14h5.07v1.14Z"/>
          <path class="cls-1" d="M126.18,6.27l-2.15-3.59v-.03h1.38l1.43,2.46,1.41-2.46h1.29l.02.03-2.12,3.6v2.38h-1.26v-2.38Z"/>
        </g>
        <path class="cls-1" d="M36.52,18.28c0-1.96,1.36-3.14,3.15-3.14,1.65,0,3.15,1.06,3.15,3.14,0,1.94-1.36,3.12-3.15,3.12-1.64,0-3.15-1.06-3.15-3.12ZM41.5,18.28c0-1.24-.73-1.99-1.83-1.99s-1.82.74-1.82,1.99.73,1.97,1.82,1.97,1.83-.74,1.83-1.97Z"/>
        <path class="cls-1" d="M46.86,16.42v1.53h2.12v1.12h-2.12v2.2h-1.28v-6h3.76v1.14h-2.48Z"/>
        <path class="cls-1" d="M60.39,19.53c0,1.13-.81,1.79-2.29,1.79h-2.06v-6c.43-.05.93-.07,1.7-.07,1.77,0,2.28.73,2.28,1.59,0,.57-.24.99-.67,1.24.63.25,1.03.74,1.03,1.46ZM57.27,16.27v1.53h.65c.6,0,.93-.31.93-.8,0-.45-.3-.76-.94-.76-.27,0-.44,0-.63.03ZM59.15,19.51c0-.47-.38-.81-1.04-.81h-.84v1.67h.71c.86,0,1.18-.33,1.18-.86Z"/>
        <path class="cls-1" d="M67.97,21.27v.04h-1.38l-1.26-2.06h-.67v2.06h-1.27v-6c.62-.05,1.08-.06,1.83-.06,1.33,0,2.48.47,2.48,1.96,0,1-.49,1.59-1.14,1.86l1.41,2.21ZM64.66,18.28h.6c.67,0,1.16-.34,1.16-.96s-.39-.99-1.08-.99c-.29,0-.52,0-.68.03v1.92Z"/>
        <path class="cls-1" d="M70.83,15.27h1.28v6h-1.28v-6Z"/>
        <path class="cls-1" d="M79.42,16.42h-1.86v4.86h-1.28v-4.86h-1.93v-1.14h5.07v1.14Z"/>
        <path class="cls-1" d="M81.75,15.27h1.28v6h-1.28v-6Z"/>
        <path class="cls-1" d="M86.15,21v-1.2h.03c.47.32,1,.51,1.61.51s1-.24,1-.68c0-.4-.22-.63-1.06-1-.75-.32-1.5-.78-1.5-1.72,0-1.21.97-1.76,2.09-1.76.77,0,1.21.12,1.55.27v1.11l-.03.02c-.36-.21-.84-.3-1.35-.31-.61,0-.99.18-.99.56s.41.55,1.1.86c.8.36,1.46.85,1.46,1.9,0,1.11-.84,1.82-2.13,1.82-.87,0-1.34-.17-1.77-.4Z"/>
        <path class="cls-1" d="M98.23,15.27v6h-1.27v-2.43h-2.73v2.43h-1.28v-6h1.28v2.41h2.73v-2.41h1.27Z"/>
        <path class="cls-1" d="M104.47,18.35c0-1.98,1.31-3.19,3.19-3.19.6,0,1.11.08,1.6.25v1.2h-.03c-.41-.19-.87-.3-1.4-.3-1.3,0-2.06.73-2.06,1.98s.74,1.96,2.09,1.96c.55,0,.93-.09,1.37-.28l.03.02v1.15c-.42.16-1,.26-1.59.26-1.86,0-3.21-1.14-3.21-3.05Z"/>
        <path class="cls-1" d="M111.62,18.28c0-1.96,1.36-3.14,3.15-3.14,1.65,0,3.15,1.06,3.15,3.14,0,1.94-1.36,3.12-3.15,3.12-1.64,0-3.15-1.06-3.15-3.12ZM116.6,18.28c0-1.24-.73-1.99-1.83-1.99s-1.82.74-1.82,1.99.73,1.97,1.82,1.97,1.83-.74,1.83-1.97Z"/>
        <path class="cls-1" d="M124.03,20.22v1.06h-3.74v-6h1.28v4.94h2.47Z"/>
        <path class="cls-1" d="M126.11,18.83v-3.62h1.26v3.46c0,1.05.46,1.58,1.34,1.58s1.32-.53,1.32-1.58v-3.46h1.23v3.62c0,1.6-.94,2.5-2.57,2.5s-2.58-.89-2.58-2.5Z"/>
        <path class="cls-1" d="M138.64,21.33h-1.14l-1.72-4.43-.21,4.41h-1.18s.4-6.17.4-6.17h1.59l1.73,4.3,1.7-4.3h1.49l.39,6.13h-1.3v-4.43s-1.75,4.49-1.75,4.49Z"/>
        <path class="cls-1" d="M149.44,19.53c0,1.13-.81,1.79-2.29,1.79h-2.06v-6c.43-.05.93-.07,1.7-.07,1.77,0,2.28.73,2.28,1.59,0,.57-.24.99-.67,1.24.63.25,1.03.74,1.03,1.46ZM146.32,16.27v1.53h.65c.6,0,.93-.31.93-.8,0-.45-.3-.76-.94-.76-.27,0-.44,0-.63.03ZM148.2,19.51c0-.47-.38-.81-1.04-.81h-.84v1.67h.71c.86,0,1.18-.33,1.18-.86Z"/>
        <path class="cls-1" d="M152.59,15.27h1.28v6h-1.28v-6Z"/>
        <path class="cls-1" d="M160.61,19.86h-2.58l-.62,1.43h-1.19l2.61-6.25h1.04l2.71,6.25h-1.34l-.62-1.43ZM159.32,16.36l-.84,2.36h1.69l-.84-2.36Z"/>
      </g>
      <g>
        <path class="cls-1" d="M5.36,9.3c1.91,0,3.01-1.05,3.01-2.89V2.24h-1.44v4c0,1.2-.54,1.82-1.55,1.82s-1.57-.61-1.57-1.82v-4h-1.47v4.18c0,1.86,1.08,2.89,3.02,2.89Z"/>
        <path class="cls-1" d="M15.14,7.11c0-.83-.47-1.4-1.21-1.69.51-.29.79-.77.79-1.43,0-.99-.6-1.83-2.67-1.83-.9,0-1.5.03-2,.08v6.93h2.41c1.74,0,2.68-.75,2.68-2.06ZM11.49,3.35c.23-.02.42-.03.74-.03.75,0,1.1.36,1.1.88,0,.57-.38.92-1.08.92h-.76v-1.77ZM11.49,8.08v-1.93h.99c.77,0,1.22.39,1.22.93,0,.62-.37.99-1.38.99h-.83Z"/>
        <path class="cls-1" d="M19.77,9.29c.69,0,1.37-.12,1.86-.3v-1.33l-.03-.02c-.51.22-.96.32-1.6.32-1.57,0-2.44-.85-2.44-2.26s.89-2.28,2.41-2.28c.62,0,1.16.13,1.63.36h.03v-1.39c-.58-.2-1.18-.29-1.88-.29-2.2,0-3.73,1.39-3.73,3.68s1.58,3.52,3.76,3.52Z"/>
        <path class="cls-1" d="M.03,0C.02.22,0,.4,0,.58c0,5.89,0,11.79,0,17.68,0,1.97.27,3.9.94,5.77,1.45,4.03,4.3,6.73,8.15,8.42,1,.44,2.05.76,3.08,1.13h.22c.96-.34,1.94-.63,2.88-1.04,5.26-2.26,8.39-6.19,9.16-11.92.05-.38.1-.77.15-1.15V0H.03ZM23.66,1.6c0,5.47,0,10.93,0,16.4,0,1.84-.2,3.65-.78,5.4-1.35,4.11-4.2,6.8-8.13,8.38-2.88,1.16-2.04,1.16-4.9,0-4.53-1.82-7.55-5.03-8.56-9.92-.23-1.13-.37-2.29-.38-3.44-.04-5.67-.02-11.34-.02-17.01,0-.13.01-.26.02-.45h22.73v.63Z"/>
        <path class="cls-1" d="M18.38,23.99c.74-1.81,1.48-3.62,2.22-5.44-.03-.02-.06-.04-.09-.05-1.44,1.38-2.88,2.75-4.31,4.13-.03-.02-.06-.05-.08-.07.56-2.44,1.13-4.88,1.69-7.32-.04-.01-.08-.02-.12-.04-1.33,2.23-2.66,4.45-4.07,6.83-.44-3.13-.85-6.09-1.26-9.05-.04,0-.08,0-.12.01-.41,2.96-.82,5.92-1.25,9.04-1.42-2.38-2.75-4.61-4.08-6.84-.04.01-.07.03-.11.04.57,2.45,1.13,4.91,1.74,7.53-1.56-1.49-3-2.87-4.43-4.25-.03.02-.06.04-.09.07.74,1.81,1.47,3.61,2.21,5.42-.03.02-.06.04-.09.05-1.19-.88-2.37-1.76-3.56-2.65-.03.02-.06.04-.08.06.27.67.54,1.33.81,2,1.3,3.21,3.56,5.45,6.74,6.79.65.27,1.31.53,1.97.78.16.06.37.08.53.03,1.79-.61,3.5-1.37,5.02-2.51,2.41-1.8,3.59-4.37,4.6-7.23-1.31.97-2.5,1.86-3.69,2.74-.03-.02-.06-.04-.08-.06Z"/>
        <path class="cls-1" d="M4.48,10.22c-.71.18-1.41.43-2.12.65v1.52c.48-.12.92-.18,1.32-.35,1.31-.54,2.6-.55,3.91,0,.92.39,1.85.39,2.77,0,1.3-.55,2.6-.55,3.9,0,.9.38,1.82.39,2.72,0,1.34-.57,2.67-.55,4.01,0,.38.16.8.21,1.25.32v-1.53c-.58-.18-1.12-.32-1.64-.5-1.1-.37-2.2-.42-3.28.03-1.13.47-2.22.46-3.36,0-1.1-.44-2.23-.44-3.32.01-1.12.46-2.19.45-3.3,0-.92-.38-1.89-.41-2.85-.17Z"/>
        <path class="cls-1" d="M11.22,14.28c.08-.43.12-.87.19-1.4-.35.11-.61.16-.85.26-1.05.46-2.08.44-3.14.02-.39-.15-.82-.23-1.24-.3-1.37-.26-2.55.52-3.81.69v1.59c.5-.14.94-.21,1.35-.38,1.27-.51,2.54-.54,3.79.03,1.22.55,2.36.28,3.49-.22.1-.04.19-.18.21-.28Z"/>
        <path class="cls-1" d="M16.94,13.26c-.88.37-1.78.34-2.67,0-.33-.12-.66-.22-1.11-.36.07.55.11.97.18,1.39.02.1.12.23.22.27,1.1.48,2.21.77,3.39.26,1.31-.57,2.63-.55,3.96-.01.4.16.84.23,1.31.35v-1.57c-.46-.12-.91-.2-1.32-.36-1.33-.52-2.64-.52-3.96.02Z"/>
        <path class="cls-1" d="M18.9,15.65c-.13,0-.36.1-.39.2-.14.43-.21.88-.28,1.17,1.37.3,2.66.57,3.99.86v-1.47c-.65-.2-1.26-.42-1.89-.57-.47-.11-.95-.15-1.43-.18Z"/>
        <path class="cls-1" d="M2.36,17.83c1.37-.07,2.54-1.08,4.05-.52-.1-.46-.17-.75-.24-1.04q-.18-.76-.96-.69c-.13.01-.26.03-.38.06-.82.22-1.63.46-2.47.69v1.49Z"/>
        <path class="cls-1" d="M14.95,17.79c.09,0,.23-.04.28-.11.29-.44.56-.89.8-1.29-.84-.18-1.61-.35-2.43-.53.02.26.04.52.07.78.09.76.52,1.15,1.28,1.16Z"/>
        <path class="cls-1" d="M9.2,17.47c.11.15.37.35.49.31.4-.13.91-.26,1.11-.57.22-.35.15-.89.2-1.34-.83.19-1.61.36-2.42.55.19.33.38.71.63,1.05Z"/>
      </g>
    </g>
  </g>
</svg>