<?xml version="1.0" encoding="UTF-8"?>
<svg id="Layer_2" data-name="Layer 2" xmlns="http://www.w3.org/2000/svg" viewBox="0 0 190.73 57.8">
  <defs>
    <style>
      .cls-1 {
        fill: #000;
      }

      .cls-1, .cls-2, .cls-3, .cls-4 {
        stroke-width: 0px;
      }

      .cls-2 {
        fill: #1a4889;
      }

      .cls-3 {
        fill: #f4c60b;
      }

      .cls-4 {
        fill: #e4372b;
      }
    </style>
  </defs>
  <g id="Presentation">
    <g>
      <path class="cls-4" d="M15.53,13.3c0-3.41.01-6.81,0-10.22,0-1.27.38-2.29,1.58-2.85,1.06-.49,2.21-.21,3.25.83,3.05,3.04,6.13,6.06,9.09,9.18.58.61.97,1.63,1,2.48.11,3.59.05,7.19.04,10.78,0,1.95-.85,2.78-2.82,2.78-3.15,0-6.29,0-9.44,0-1.86,0-2.68-.81-2.69-2.65-.01-3.44,0-6.89,0-10.33Z"/>
      <path class="cls-4" d="M44.61,42.31c-3.37,0-6.74.01-10.11,0-2.14,0-2.96-.84-2.97-3.01-.01-2.96-.01-5.92,0-8.87,0-2.19.86-3.06,3.07-3.07,3.45-.02,6.89,0,10.34,0,1.09,0,2.02.31,2.82,1.12,3,3.04,6.04,6.04,9.06,9.05.88.87,1.4,1.85.89,3.12-.5,1.25-1.48,1.69-2.76,1.69-3.45-.01-6.89,0-10.34,0Z"/>
      <path class="cls-2" d="M22.96,57.79c-1.65,0-3.3.03-4.95,0-1.55-.03-2.46-.9-2.48-2.45-.04-3.33-.04-6.67,0-10,.02-1.56.95-2.47,2.59-2.49,3.26-.05,6.52-.05,9.78,0,1.73.03,2.58.98,2.59,2.72.02,3.18.02,6.37,0,9.55,0,1.82-.86,2.66-2.7,2.68-1.61.02-3.22,0-4.83,0h0Z"/>
      <path class="cls-2" d="M15,34.85c0,1.64.02,3.29,0,4.93-.03,1.62-.85,2.5-2.49,2.52-3.33.04-6.66.04-9.99,0-1.55-.02-2.45-.88-2.48-2.45-.06-3.33-.06-6.65,0-9.98.03-1.52.82-2.42,2.35-2.46,3.44-.09,6.88-.1,10.32,0,1.57.05,2.27.98,2.29,2.61.02,1.61,0,3.22,0,4.82Z"/>
      <path class="cls-1" d="M83.94,28.2h-3.54V10.78c1.17,0,2.28-.06,3.39.04.29.02.61.48.78.8,1.95,3.75,3.87,7.5,5.8,11.26.08.16.17.31.27.5-.13-4.18-.26-8.29-.39-12.51h3.55v17.4c-1.11,0-2.26.06-3.39-.04-.28-.02-.59-.5-.77-.84-1.92-3.68-3.81-7.37-5.72-11.05-.11-.22-.25-.43-.34-.59.12,4.11.24,8.24.36,12.46Z"/>
      <path class="cls-1" d="M117.39,10.83h3.55v6.68h6.38v-6.65h3.64v17.32h-3.58v-7.3h-6.42v7.33h-3.57V10.83Z"/>
      <path class="cls-1" d="M190.66,28.21h-3.53c0-.98,0-1.9,0-2.82-.02-1.95,0-3.9-.1-5.84-.08-1.45-1.16-2.08-2.53-1.6-1.22.43-1.77,1.2-1.77,2.48,0,2.54,0,5.09,0,7.74h-3.64V9.5h3.56v6.82c.72-.43,1.39-.92,2.12-1.24,2.93-1.26,5.58.08,5.83,3.22.26,3.23.06,6.5.06,9.9Z"/>
      <path class="cls-1" d="M154.74,19.6c-.21-2.25-1.28-2.42-5.7-.86-.4-.72-.82-1.46-1.3-2.31,2.56-1.47,5.12-2.43,8-1.28,1.8.72,2.58,2.31,2.66,4.1.13,2.94.04,5.9.03,8.85-2.05.53-2.8.29-3.29-1.14-.57.36-1.11.75-1.7,1.05-1.73.89-3.68.7-4.94-.44-1.15-1.04-1.58-2.83-1.02-4.33.5-1.34,1.55-2.11,2.83-2.52,1.45-.46,2.94-.76,4.42-1.13ZM154.65,21.82c-1.11.44-2.25.76-3.23,1.36-.37.23-.6,1.16-.45,1.64.12.39.88.83,1.37.84,1.53.02,3.12-.76,2.32-3.84Z"/>
      <path class="cls-1" d="M145.1,22.7h-7.92c.29,2.81,2.38,3.53,6.56,2.28.35.66.72,1.33,1.08,2-2.01,1.76-5.54,2.08-7.94.78-2.4-1.31-3.68-4.08-3.27-7.08.55-4.11,4.04-6.73,7.74-5.83,1.31.32,2.29,1.06,2.99,2.19,1.02,1.64,1.35,3.97.77,5.67ZM137.19,20.19h4.95c-.04-1.82-.62-2.56-2.05-2.66-1.54-.11-2.56.81-2.89,2.66Z"/>
      <path class="cls-1" d="M97.6,28.17V10.83h3.57v14.31h7.04v3.02h-10.61Z"/>
      <path class="cls-1" d="M169.48,17.93c-.69-.05-1.2-.09-1.78-.14v-2.53c.09-.06.15-.12.22-.13q1.69-.18,1.94-1.78.29-1.93,2.27-1.91c.29,0,.58.03.96.06v3.42h3.22v2.9h-3.09c0,2.22-.11,4.34.04,6.44.09,1.28,1.04,1.6,2.93,1.22.1.41.21.83.3,1.26.09.4.17.8.25,1.18-3.46,2.01-7.1.09-7.25-3.83-.07-2.01-.01-4.03-.01-6.16Z"/>
      <path class="cls-1" d="M79.21,50.45c.47-.55.9-1.05,1.29-1.5,1.01.51,1.92,1.16,2.93,1.42.93.23,1.99.16,2.96-.02.93-.17,1.4-.95,1.47-1.9.07-.88-.38-1.52-1.12-1.91-.79-.42-1.62-.77-2.43-1.15-.64-.31-1.29-.59-1.91-.94-2.01-1.11-2.74-2.55-2.37-4.6.29-1.58,1.93-3.08,3.81-3.36,2.27-.34,4.3.19,6.02,1.88-.4.5-.8.99-1.22,1.52-1.27-.9-2.55-1.55-4.11-1.29-.98.16-1.82.5-2.04,1.61-.24,1.17.43,1.83,1.38,2.28,1.22.56,2.47,1.07,3.68,1.64,2.12,1.01,2.97,2.43,2.79,4.51-.17,1.89-1.52,3.43-3.63,3.93-2.82.66-5.31-.07-7.51-2.11Z"/>
      <path class="cls-1" d="M161.39,9.48h3.65v1.18c0,4.45,0,8.89,0,13.34,0,.73.16,1.2.89,1.71.57.41.58,1.6.82,2.42-2.95,1.15-5.1-.11-5.32-2.94-.04-.52-.04-1.05-.04-1.57,0-4.67,0-9.34,0-14.14Z"/>
      <path class="cls-1" d="M151.07,50.07c.27.51.51.96.74,1.39-2.01,1.54-4.81,1.8-6.82.59-2.19-1.31-2.95-3.38-2.84-5.82.11-2.37,1.09-4.27,3.31-5.32,3.04-1.44,6.24.27,6.73,3.59.13.87.1,1.76.15,2.73h-7.69c-.34,3.02,2.54,4.31,6.42,2.84ZM144.59,45.45h5.52c0-2-.81-3.07-2.35-3.14-1.66-.08-2.93,1.16-3.17,3.14Z"/>
      <path class="cls-1" d="M102.45,47.25h-7.71c.25,3.2,2.23,4.06,6.57,2.89.24.43.49.88.77,1.39-2.04,1.31-4.12,1.71-6.33.76-2.04-.87-3.1-2.51-3.33-4.69-.24-2.32.23-4.4,2.11-5.97,1.47-1.23,3.15-1.51,4.94-.91,1.85.62,2.65,2.12,2.95,3.9.13.8.02,1.63.02,2.63ZM100.35,45.46c-.1-2.19-.95-3.2-2.57-3.15-1.65.05-2.95,1.48-2.86,3.15h5.43Z"/>
      <path class="cls-1" d="M153.87,51.17c.43-.57.76-1.02,1.16-1.56.44.26.82.61,1.26.73.92.24,1.88.5,2.8.44.47-.03,1.13-.67,1.27-1.15.11-.39-.3-1.16-.7-1.43-.9-.59-1.93-.96-2.91-1.43-1.75-.83-2.5-2-2.25-3.47.27-1.58,1.6-2.67,3.44-2.85,1.63-.16,3.12.2,4.5,1.33-.35.48-.69.95-.93,1.28-1.09-.28-2.03-.62-2.99-.76-.74-.1-1.4.24-1.64,1.06-.26.9.34,1.31,1.01,1.63.95.45,1.92.83,2.87,1.27,1.33.63,2.13,1.61,2.02,3.18-.1,1.4-.99,2.53-2.46,3.02-2.34.78-4.4.13-6.44-1.3Z"/>
      <path class="cls-1" d="M124.06,40.8c-1.29,3.75-2.57,7.49-3.89,11.22-.08.23-.46.45-.73.49-.55.08-1.13.07-1.68,0-.27-.04-.65-.25-.73-.48-1.35-3.71-2.66-7.44-4.01-11.26h2.5c1,3.21,2.01,6.44,3.08,9.87.67-2.16,1.29-4.15,1.9-6.14.21-.68.44-1.35.65-2.03q.62-1.97,2.9-1.67Z"/>
      <path class="cls-1" d="M140.77,41.84c-.35.46-.71.93-1.07,1.41-.55-.27-1.02-.6-1.54-.73-1.52-.39-3.09.47-3.69,2.03-.52,1.38-.53,2.8,0,4.17.78,1.97,2.91,2.64,4.73,1.54.25-.15.5-.31.84-.52.33.53.64,1.03.99,1.59-1.67,1.41-3.5,1.8-5.49,1.24-2-.57-3.25-1.97-3.75-3.96-.76-3.05.18-5.72,2.45-7.26,2.04-1.38,4.88-1.18,6.53.51Z"/>
      <path class="cls-1" d="M107.6,52.48h-2.37v-11.71h1.87c.08.57.17,1.17.29,1.98,1.2-1.67,2.48-2.76,4.64-2.12-.12.69-.24,1.37-.35,2.04-2.66-.27-4.07,1.03-4.07,3.66,0,2.01,0,4.02,0,6.14Z"/>
      <path class="cls-1" d="M128.74,52.48h-2.29v-11.71h2.29v11.71Z"/>
      <path class="cls-1" d="M129.08,36.86c0,.95-.66,1.64-1.49,1.58-.86-.07-1.39-.56-1.45-1.43-.06-.8.67-1.48,1.52-1.45.89.04,1.36.52,1.42,1.31Z"/>
      <path class="cls-3" d="M33.51,13.05c-.26.34-.4.79-.41,1.34-.05,2.74-.05,5.48,0,8.22.02,1.29.76,2,2.05,2.01,2.75.03,5.5.03,8.25,0,.57,0,1.01-.14,1.34-.39l-11.23-11.19Z"/>
    </g>
  </g>
</svg>