<?xml version="1.0" encoding="UTF-8"?>
<svg id="Layer_2" data-name="Layer 2" xmlns="http://www.w3.org/2000/svg" viewBox="0 0 245.66 38.86">
  <defs>
    <style>
      .cls-1 {
        fill: #000;
      }

      .cls-1, .cls-2, .cls-3, .cls-4, .cls-5 {
        stroke-width: 0px;
      }

      .cls-2 {
        fill: #94c83d;
      }

      .cls-3 {
        fill: #d2e499;
      }

      .cls-4 {
        fill: #8cd3e8;
      }

      .cls-5 {
        fill: #00a7cf;
      }
    </style>
  </defs>
  <g id="Presentation">
    <g>
      <g>
        <path class="cls-1" d="M1.64,2.31h1.48v15.14h-1.48V2.31Z"/>
        <path class="cls-1" d="M15.01,10.83v6.62h-1.42v-6.42c0-1.69-1-2.88-2.45-2.88-1.65,0-3.03,1.23-3.03,2.68v6.62h-1.42V7.04h1.42v1.67c.57-1.11,1.84-1.91,3.22-1.91,2.16,0,3.68,1.67,3.68,4.03Z"/>
        <path class="cls-1" d="M22.73,17.03c-.51.42-1.16.66-1.82.66-1.4,0-2.39-1.11-2.39-2.66v-6.64h-1.54v-1.35h1.54v-2.86h1.42v2.86h2.41v1.35h-2.41v6.64c0,.77.49,1.31,1.06,1.31.44,0,.82-.18,1.02-.42l.7,1.11Z"/>
        <path class="cls-1" d="M31.8,15.1l.87.99c-.85.99-2.58,1.61-3.94,1.61-2.62,0-4.97-2.28-4.97-5.48s2.2-5.42,4.83-5.42c2.96,0,4.65,2.38,4.65,6.02h-8.02c.21,2.03,1.55,3.52,3.49,3.52,1.16,0,2.48-.54,3.09-1.25ZM25.24,11.47h6.6c-.19-1.87-1.23-3.32-3.19-3.32-1.74,0-3.15,1.31-3.41,3.32Z"/>
        <path class="cls-1" d="M40.93,6.8v1.35c-2.22,0-3.79,1.45-3.79,3.48v5.82h-1.42V7.04h1.42v2.03c.59-1.39,1.99-2.28,3.79-2.28Z"/>
        <path class="cls-1" d="M51.24,10.83v6.62h-1.42v-6.42c0-1.69-1-2.88-2.45-2.88-1.65,0-3.03,1.23-3.03,2.68v6.62h-1.42V7.04h1.42v1.67c.57-1.11,1.84-1.91,3.22-1.91,2.16,0,3.68,1.67,3.68,4.03Z"/>
        <path class="cls-1" d="M62.09,11.11v6.34h-1.42v-1.63c-.7,1.23-2.16,1.87-3.45,1.87-2.07,0-3.58-1.27-3.58-3.32s1.74-3.46,3.85-3.46c1.06,0,2.18.24,3.19.58v-.38c0-1.41-.53-3.02-2.65-3.02-.99,0-1.97.46-2.86.95l-.57-1.23c1.4-.75,2.58-1.01,3.53-1.01,2.67,0,3.98,1.79,3.98,4.31ZM60.66,14.19v-1.59c-.89-.26-1.9-.42-2.96-.42-1.46,0-2.69.89-2.69,2.13s1.06,2.05,2.45,2.05c1.29,0,2.83-.7,3.2-2.17Z"/>
        <path class="cls-1" d="M69.16,17.03c-.51.42-1.16.66-1.82.66-1.4,0-2.39-1.11-2.39-2.66v-6.64h-1.54v-1.35h1.54v-2.86h1.42v2.86h2.41v1.35h-2.41v6.64c0,.77.49,1.31,1.06,1.31.44,0,.82-.18,1.02-.42l.7,1.11Z"/>
        <path class="cls-1" d="M70.82,4.14c0-.52.42-.99.95-.99s.93.46.93.99-.42,1.01-.93,1.01-.95-.46-.95-1.01ZM71.05,7.04h1.42v10.41h-1.42V7.04Z"/>
        <path class="cls-1" d="M74.96,12.09c0-2.96,2.33-5.44,5.08-5.44s5.06,2.48,5.06,5.44-2.31,5.46-5.06,5.46-5.08-2.5-5.08-5.46ZM83.61,12.09c0-2.21-1.63-4.09-3.57-4.09s-3.58,1.87-3.58,4.09,1.63,4.11,3.58,4.11,3.57-1.87,3.57-4.11Z"/>
        <path class="cls-1" d="M96.08,10.83v6.62h-1.42v-6.42c0-1.69-1-2.88-2.45-2.88-1.65,0-3.03,1.23-3.03,2.68v6.62h-1.42V7.04h1.42v1.67c.57-1.11,1.84-1.91,3.22-1.91,2.16,0,3.68,1.67,3.68,4.03Z"/>
        <path class="cls-1" d="M107.09,11.11v6.34h-1.42v-1.63c-.7,1.23-2.16,1.87-3.45,1.87-2.07,0-3.58-1.27-3.58-3.32s1.74-3.46,3.85-3.46c1.06,0,2.18.24,3.19.58v-.38c0-1.41-.53-3.02-2.65-3.02-.99,0-1.97.46-2.86.95l-.57-1.23c1.4-.75,2.58-1.01,3.53-1.01,2.67,0,3.98,1.79,3.98,4.31ZM105.67,14.19v-1.59c-.89-.26-1.9-.42-2.96-.42-1.46,0-2.69.89-2.69,2.13s1.06,2.05,2.45,2.05c1.29,0,2.83-.7,3.2-2.17Z"/>
        <path class="cls-1" d="M110.32,1.53h1.42v15.92h-1.42V1.53Z"/>
      </g>
      <g>
        <path class="cls-1" d="M130.17,2.3v15.34h-1.47v-6.99h-7.64v6.99h-1.47V2.3h1.47v6.7h7.64V2.3h1.47Z"/>
        <path class="cls-1" d="M132.59,22.18l.34-1.24c.34.17.74.25,1.15.25.62,0,1.04-.21,1.41-.89l.98-2.62-4.24-10.08h1.56l3.41,8.36,3.22-8.36h1.53l-4.86,12.55c-.68,1.71-1.62,2.35-2.96,2.37-.57,0-1.09-.12-1.55-.33Z"/>
        <path class="cls-1" d="M152.98,12.6c0,3.09-1.92,5.27-4.49,5.27-1.56,0-2.81-.8-3.54-2.12v6.76h-1.41V7.59h1.41v1.88c.73-1.32,1.98-2.12,3.54-2.12,2.56,0,4.49,2.18,4.49,5.25ZM151.49,12.6c0-2.31-1.36-3.94-3.26-3.94s-3.28,1.63-3.28,3.94,1.36,3.96,3.28,3.96,3.26-1.65,3.26-3.96Z"/>
        <path class="cls-1" d="M163.77,15.36l.87.95c-.85.95-2.56,1.56-3.92,1.56-2.6,0-4.94-2.2-4.94-5.29s2.19-5.23,4.81-5.23c2.94,0,4.62,2.29,4.62,5.81h-7.98c.21,1.96,1.55,3.4,3.47,3.4,1.15,0,2.47-.52,3.07-1.21ZM157.25,11.87h6.56c-.19-1.81-1.23-3.21-3.17-3.21-1.74,0-3.13,1.26-3.39,3.21Z"/>
        <path class="cls-1" d="M172.84,7.36v1.3c-2.21,0-3.77,1.4-3.77,3.36v5.62h-1.41V7.59h1.41v1.96c.58-1.34,1.98-2.2,3.77-2.2Z"/>
        <path class="cls-1" d="M184.38,12.6c0,3.09-1.92,5.27-4.49,5.27-1.56,0-2.81-.8-3.54-2.12v1.89h-1.41V1.47h1.41v8.01c.73-1.32,1.98-2.12,3.54-2.12,2.56,0,4.49,2.18,4.49,5.25ZM182.89,12.6c0-2.31-1.36-3.94-3.26-3.94s-3.28,1.63-3.28,3.94,1.36,3.96,3.28,3.96,3.26-1.65,3.26-3.96Z"/>
        <path class="cls-1" d="M194.76,11.52v6.12h-1.41v-1.57c-.7,1.19-2.15,1.81-3.43,1.81-2.06,0-3.56-1.22-3.56-3.21s1.73-3.34,3.83-3.34c1.06,0,2.17.23,3.17.56v-.37c0-1.36-.53-2.91-2.64-2.91-.98,0-1.96.45-2.85.91l-.57-1.19c1.39-.72,2.56-.97,3.51-.97,2.66,0,3.96,1.73,3.96,4.16ZM193.34,14.49v-1.54c-.89-.25-1.88-.41-2.94-.41-1.45,0-2.68.86-2.68,2.06s1.06,1.98,2.43,1.98c1.28,0,2.81-.68,3.19-2.1Z"/>
        <path class="cls-1" d="M202.96,7.36v1.3c-2.21,0-3.77,1.4-3.77,3.36v5.62h-1.41V7.59h1.41v1.96c.58-1.34,1.98-2.2,3.77-2.2Z"/>
        <path class="cls-1" d="M204.9,4.09c0-.53.42-1,.94-1s.92.47.92,1-.41,1.02-.92,1.02-.94-.47-.94-1.02ZM205.13,7.04h1.41v10.59h-1.41V7.04Z"/>
        <path class="cls-1" d="M209.13,12.6c0-2.86,2.32-5.25,5.05-5.25,1.32,0,2.55.56,3.47,1.48l-.98.99c-.64-.72-1.53-1.17-2.49-1.17-1.94,0-3.56,1.81-3.56,3.94s1.62,3.96,3.56,3.96c.98,0,1.89-.47,2.55-1.22l.98.99c-.92.95-2.17,1.54-3.53,1.54-2.73,0-5.05-2.41-5.05-5.27Z"/>
        <path class="cls-1" d="M218.8,16.37l.73-1.07c1.11.84,2.23,1.26,3.3,1.26,1.28,0,2.15-.62,2.15-1.57,0-1.09-1.13-1.44-2.45-1.83-2.36-.7-3.26-1.42-3.26-2.86,0-1.83,1.47-2.95,3.41-2.95,1.21,0,2.45.43,3.49,1.13l-.68,1.13c-.98-.64-1.94-.95-2.81-.95-1.09,0-2,.51-2,1.48,0,.87.72,1.15,2.53,1.75,1.57.51,3.19,1.05,3.19,2.95s-1.55,3.03-3.56,3.03c-1.36,0-2.87-.52-4.03-1.5Z"/>
      </g>
      <g>
        <path class="cls-1" d="M10.8,35.38H3.1l-1.39,3.27H0l6.09-14.39h1.71l6.09,14.39h-1.71l-1.39-3.27ZM10.15,33.83l-3.2-7.56-3.22,7.56h6.41Z"/>
        <path class="cls-1" d="M14.38,37.5l.73-.97c1.1.76,2.21,1.15,3.28,1.15,1.27,0,2.13-.57,2.13-1.43,0-.99-1.12-1.31-2.43-1.66-2.34-.64-3.24-1.29-3.24-2.6,0-1.66,1.46-2.68,3.39-2.68,1.2,0,2.43.39,3.46,1.02l-.67,1.02c-.97-.58-1.93-.87-2.79-.87-1.09,0-1.99.46-1.99,1.34,0,.79.71,1.04,2.51,1.59,1.55.46,3.16.95,3.16,2.68s-1.54,2.76-3.54,2.76c-1.35,0-2.85-.48-4.01-1.36Z"/>
        <path class="cls-1" d="M23.67,37.5l.73-.97c1.1.76,2.21,1.15,3.28,1.15,1.27,0,2.13-.57,2.13-1.43,0-.99-1.12-1.31-2.43-1.66-2.34-.64-3.24-1.29-3.24-2.6,0-1.66,1.46-2.68,3.39-2.68,1.2,0,2.43.39,3.46,1.02l-.67,1.02c-.97-.58-1.93-.87-2.79-.87-1.09,0-1.99.46-1.99,1.34,0,.79.71,1.04,2.51,1.59,1.55.46,3.16.95,3.16,2.68s-1.54,2.76-3.54,2.76c-1.35,0-2.85-.48-4.01-1.36Z"/>
        <path class="cls-1" d="M32.65,34.07c0-2.6,2.3-4.77,5.02-4.77s5,2.17,5,4.77-2.28,4.79-5,4.79-5.02-2.19-5.02-4.79ZM41.19,34.07c0-1.94-1.61-3.59-3.52-3.59s-3.54,1.64-3.54,3.59,1.61,3.6,3.54,3.6,3.52-1.64,3.52-3.6Z"/>
        <path class="cls-1" d="M44.83,34.07c0-2.6,2.3-4.77,5.02-4.77,1.31,0,2.53.51,3.45,1.34l-.97.9c-.64-.65-1.52-1.06-2.47-1.06-1.93,0-3.54,1.64-3.54,3.59s1.61,3.6,3.54,3.6c.97,0,1.87-.42,2.53-1.11l.97.9c-.92.87-2.15,1.4-3.5,1.4-2.71,0-5.02-2.19-5.02-4.79Z"/>
        <path class="cls-1" d="M55.26,25.79c0-.51.41-.95.94-.95s.92.45.92.95-.41.97-.92.97-.94-.45-.94-.97ZM55.49,28.59h1.4v10.05h-1.4v-10.05Z"/>
        <path class="cls-1" d="M67.58,33.08v5.56h-1.41v-1.43c-.69,1.08-2.13,1.64-3.41,1.64-2.04,0-3.54-1.11-3.54-2.91s1.72-3.04,3.8-3.04c1.05,0,2.15.21,3.15.51v-.34c0-1.24-.52-2.65-2.62-2.65-.97,0-1.95.41-2.83.83l-.56-1.08c1.39-.65,2.55-.88,3.48-.88,2.64,0,3.93,1.57,3.93,3.78ZM66.18,35.78v-1.4c-.88-.23-1.87-.37-2.92-.37-1.44,0-2.66.78-2.66,1.87s1.05,1.8,2.41,1.8c1.27,0,2.79-.62,3.16-1.91Z"/>
        <path class="cls-1" d="M74.83,38.27c-.51.37-1.14.58-1.8.58-1.39,0-2.36-.97-2.36-2.33l-.05-6.27h-1.98v-1.18h1.98v-2.51h1.41v2.51l2.81-.03v1.18l-2.81.03.05,6.27c0,.67.49,1.15,1.05,1.15.43,0,.81-.16,1.01-.37l.69.97Z"/>
        <path class="cls-1" d="M76.43,25.56c0-.51.41-.97.94-.97s.92.46.92.97-.41.99-.92.99-.94-.46-.94-.99ZM76.66,28.41h1.4v10.23h-1.4v-10.23Z"/>
        <path class="cls-1" d="M80.79,34.07c0-2.6,2.3-4.77,5.02-4.77s5,2.17,5,4.77-2.28,4.79-5,4.79-5.02-2.19-5.02-4.79ZM89.33,34.07c0-1.94-1.61-3.59-3.52-3.59s-3.54,1.64-3.54,3.59,1.61,3.6,3.54,3.6,3.52-1.64,3.52-3.6Z"/>
        <path class="cls-1" d="M101.65,32.83v5.81h-1.41v-5.63c0-1.48-.99-2.53-2.41-2.53-1.63,0-3,1.08-3,2.35v5.81h-1.4v-9.13h1.4v1.47c.56-.97,1.82-1.68,3.18-1.68,2.13,0,3.63,1.47,3.63,3.53Z"/>
      </g>
      <path class="cls-1" d="M240.31,10.7c-2.95,0-5.35-2.4-5.35-5.35s2.4-5.35,5.35-5.35,5.35,2.4,5.35,5.35-2.4,5.35-5.35,5.35ZM240.31,1c-2.4,0-4.35,1.95-4.35,4.35s1.95,4.35,4.35,4.35,4.35-1.95,4.35-4.35-1.95-4.35-4.35-4.35Z"/>
      <path class="cls-1" d="M240.93,6.08l1.4,2.07h-.7l-1.37-2.01h-1.43v2.01h-.61V2.55h2.19c1.11,0,1.99.74,1.99,1.79,0,.88-.61,1.55-1.47,1.74ZM238.84,5.53h1.47c.88,0,1.48-.44,1.48-1.19s-.6-1.19-1.48-1.19h-1.47v2.38Z"/>
      <g>
        <polygon class="cls-5" points="144.69 38.86 137.17 38.86 123.75 23.97 131.27 23.97 144.69 38.86"/>
        <polygon class="cls-4" points="110.32 38.86 117.85 38.86 131.27 23.97 123.75 23.97 110.32 38.86"/>
        <polygon class="cls-4" points="137.12 38.86 144.64 38.86 158.06 23.97 150.54 23.97 137.12 38.86"/>
        <polygon class="cls-5" points="171.61 38.86 164.08 38.86 150.66 23.97 158.18 23.97 171.61 38.86"/>
        <polygon class="cls-5" points="198.53 38.86 191.01 38.86 177.59 23.97 185.11 23.97 198.53 38.86"/>
        <polygon class="cls-4" points="164.08 38.86 171.6 38.86 185.02 23.97 177.5 23.97 164.08 38.86"/>
        <polygon class="cls-2" points="225.76 38.86 218.23 38.86 204.81 23.97 212.33 23.97 225.76 38.86"/>
        <polygon class="cls-3" points="191.3 38.86 198.82 38.86 212.25 23.97 204.72 23.97 191.3 38.86"/>
      </g>
    </g>
  </g>
</svg>