<?xml version="1.0" encoding="UTF-8"?>
<svg id="Layer_2" data-name="Layer 2" xmlns="http://www.w3.org/2000/svg" viewBox="0 0 325.89 159.28">
  <defs>
    <style>
      .cls-1 {
        fill: #000;
      }

      .cls-1, .cls-2, .cls-3, .cls-4 {
        stroke-width: 0px;
      }

      .cls-2 {
        fill: #1a4889;
      }

      .cls-3 {
        fill: #eb1c24;
      }

      .cls-4 {
        fill: #901600;
      }
    </style>
  </defs>
  <g id="Presentation">
    <g>
      <path class="cls-2" d="M122.03,131.07c-11.89,9.81-26.94,15.21-42.39,15.21-34.55,0-63.04-26.44-66.32-60.14h22.87c2.92,22.93,21.43,40.67,43.78,40.67,10.33,0,20.37-3.87,28.29-10.88l-8.62-9.73c-5.62,4.98-12.42,7.61-19.66,7.61-17.2,0-31.19-15.25-31.19-34s13.99-34,31.19-34c7.13,0,13.83,2.55,19.4,7.38l8.52-9.82c-7.85-6.81-17.77-10.56-27.92-10.56-22.24,0-40.68,17.56-43.74,40.33H13.32c3.28-33.71,31.77-60.14,66.32-60.14,15.41,0,29.87,5.11,41.83,14.76l8.17-10.12C115.55,6.27,97.79,0,79.64,0,35.73,0,0,35.73,0,79.64s35.73,79.64,79.64,79.64c18.46,0,36.45-6.46,50.66-18.19l-8.28-10.03Z"/>
      <polygon class="cls-4" points="70.78 79.64 86.44 63.98 86.44 94.64 70.78 79.64"/>
      <polygon class="cls-1" points="122.5 58.5 125.83 101.25 135.61 101.25 146.5 74.88 149.17 101.25 159.39 101.25 177.17 58.5 166.72 58.5 156.72 84.43 156.72 58.5 144.94 58.5 134.5 83.74 134.5 58.5 122.5 58.5"/>
      <polygon class="cls-1" points="175.03 100.75 178.36 58.5 206.03 58.5 206.03 66.25 184.44 66.25 184.44 75 201.61 75 201.61 82.92 183.03 82.92 183.03 92.92 201.53 92.92 201.53 101.25 175.03 101.25 175.03 100.75"/>
      <path class="cls-1" d="M217.61,101.25c-7.52,0-15.61-4.92-15.61-15.74h9c0,6.13,4.62,6.79,6.61,6.79,2.96,0,9.83-.48,9.83-4.91,0-2.24-4.1-3.22-8.53-3.94-.93-.15-1.73-.28-2.41-.45-4.88-1.23-8.47-3.98-10.09-7.72-1.48-3.39-1.17-7.26.85-10.9,4.5-8.08,13.42-8.08,16.35-8.08,6.43,0,15.72,5.41,15.72,15.18h-9c0-4.32-4.87-6.24-6.72-6.24-4.71,0-7.09.97-8.48,3.46-.66,1.19-.82,2.2-.46,3.01.48,1.11,2,2.08,4.05,2.6.3.08.98.19,1.64.29,4.4.71,16.08,2.61,16.08,12.76,0,6.7-4.95,13.86-18.83,13.86Z"/>
      <polygon class="cls-1" points="240.61 58.5 274.06 58.5 274.06 65.84 260.5 65.84 254.83 101.25 245.83 101.25 252.28 65.73 240.61 65.73 240.61 58.5"/>
      <polygon class="cls-3" points="283.28 80.17 283.28 77.17 266.89 77.17 264.99 101.25 281.5 101.25 281.5 98.25 268.23 98.25 268.88 90.06 281.5 90.06 281.5 87.06 269.12 87.06 269.66 80.17 283.28 80.17"/>
      <polygon class="cls-3" points="300.34 101.17 288.21 82.45 288 101.17 285.28 101.25 285.56 76.96 288.33 76.96 300.11 95.92 300.11 76.96 303.11 76.96 303.11 101.17 300.34 101.17"/>
      <path class="cls-3" d="M325.86,88.74c0-.19.03-.36.03-.55h-.05c-.25-3.96-1.87-7.02-4.85-9.08-3.46-2.4-7.94-2.88-11-2.88-1.99,0-3.39.21-3.53.23l-1.23,1.23v22.12l1.23,1.23c.14.02,1.54.23,3.53.23,3.07,0,7.54-.49,11-2.88,2.98-2.06,4.6-5.12,4.85-9.08h.05c0-.19-.02-.37-.03-.55ZM319.08,96.45c-3.48,2.42-8.55,2.4-10.86,2.25v-19.91c2.31-.16,7.37-.17,10.86,2.25,2.4,1.67,3.66,4.27,3.79,7.71-.12,3.44-1.39,6.04-3.79,7.71Z"/>
      <path class="cls-2" d="M195.02,116.35l1.68.53c-.26.94-.69,1.63-1.29,2.09s-1.36.68-2.28.68c-1.14,0-2.08-.39-2.81-1.17s-1.1-1.84-1.1-3.2c0-1.43.37-2.54,1.11-3.33s1.71-1.19,2.91-1.19c1.05,0,1.9.31,2.56.93.39.37.68.89.88,1.58l-1.72.41c-.1-.45-.31-.8-.64-1.05s-.71-.39-1.17-.39c-.64,0-1.15.23-1.55.69s-.59,1.2-.59,2.22c0,1.09.2,1.86.59,2.32s.9.69,1.52.69c.46,0,.86-.15,1.19-.44s.57-.75.71-1.38Z"/>
      <path class="cls-2" d="M203.58,115.27c0-.88.13-1.61.39-2.2.2-.44.46-.83.8-1.18s.71-.61,1.11-.77c.54-.23,1.15-.34,1.85-.34,1.27,0,2.28.39,3.04,1.18s1.14,1.88,1.14,3.28-.38,2.47-1.13,3.25-1.76,1.17-3.02,1.17-2.29-.39-3.05-1.17-1.13-1.85-1.13-3.22ZM205.37,115.21c0,.97.22,1.71.67,2.21s1.02.75,1.71.75,1.26-.25,1.7-.75.67-1.25.67-2.24-.22-1.72-.65-2.2-1-.73-1.72-.73-1.29.25-1.73.74-.66,1.23-.66,2.22Z"/>
      <path class="cls-2" d="M218.79,119.51v-8.59h1.69l3.52,5.74v-5.74h1.61v8.59h-1.74l-3.46-5.6v5.6h-1.61Z"/>
      <path class="cls-2" d="M232.49,119.51v-8.59h1.69l3.52,5.74v-5.74h1.61v8.59h-1.74l-3.46-5.6v5.6h-1.61Z"/>
      <path class="cls-2" d="M246.18,119.51v-8.59h6.37v1.45h-4.63v1.9h4.31v1.45h-4.31v2.34h4.8v1.45h-6.53Z"/>
      <path class="cls-2" d="M265.39,116.35l1.68.53c-.26.94-.69,1.63-1.29,2.09s-1.36.68-2.28.68c-1.14,0-2.08-.39-2.81-1.17s-1.1-1.84-1.1-3.2c0-1.43.37-2.54,1.11-3.33s1.71-1.19,2.91-1.19c1.05,0,1.9.31,2.56.93.39.37.68.89.88,1.58l-1.72.41c-.1-.45-.31-.8-.64-1.05s-.71-.39-1.17-.39c-.64,0-1.15.23-1.55.69s-.59,1.2-.59,2.22c0,1.09.2,1.86.59,2.32s.9.69,1.52.69c.46,0,.86-.15,1.19-.44s.57-.75.71-1.38Z"/>
      <path class="cls-2" d="M276.5,119.51v-7.14h-2.55v-1.45h6.83v1.45h-2.54v7.14h-1.73Z"/>
      <path class="cls-2" d="M287.66,115.27c0-.88.13-1.61.39-2.2.2-.44.46-.83.8-1.18s.71-.61,1.11-.77c.54-.23,1.15-.34,1.85-.34,1.27,0,2.28.39,3.04,1.18s1.14,1.88,1.14,3.28-.38,2.47-1.13,3.25-1.76,1.17-3.02,1.17-2.29-.39-3.05-1.17-1.13-1.85-1.13-3.22ZM289.45,115.21c0,.97.22,1.71.67,2.21s1.02.75,1.71.75,1.26-.25,1.7-.75.67-1.25.67-2.24-.22-1.72-.65-2.2-1-.73-1.72-.73-1.29.25-1.73.74-.66,1.23-.66,2.22Z"/>
      <path class="cls-2" d="M302.87,119.51v-8.59h3.65c.92,0,1.58.08,2,.23s.75.43,1,.82.38.85.38,1.35c0,.64-.19,1.18-.57,1.6s-.95.68-1.7.79c.38.22.68.46.93.72s.57.73.99,1.39l1.05,1.68h-2.07l-1.25-1.87c-.45-.67-.75-1.09-.91-1.26s-.34-.29-.52-.36-.47-.1-.87-.1h-.35v3.59h-1.73ZM304.61,114.55h1.28c.83,0,1.35-.04,1.56-.11s.37-.19.49-.36.18-.39.18-.64c0-.29-.08-.52-.23-.7s-.37-.29-.65-.34c-.14-.02-.56-.03-1.27-.03h-1.35v2.18Z"/>
      <path class="cls-2" d="M317.47,116.72l1.69-.16c.1.57.31.98.62,1.25s.73.4,1.26.4c.56,0,.98-.12,1.26-.35s.42-.51.42-.83c0-.2-.06-.38-.18-.52s-.33-.27-.62-.37c-.2-.07-.67-.2-1.39-.38-.93-.23-1.58-.51-1.96-.85-.53-.47-.79-1.05-.79-1.73,0-.44.12-.85.37-1.23s.61-.67,1.07-.87,1.03-.3,1.69-.3c1.08,0,1.89.24,2.43.71s.83,1.1.86,1.89l-1.73.08c-.07-.44-.23-.76-.48-.95s-.61-.29-1.1-.29-.9.1-1.18.31c-.18.13-.28.31-.28.53,0,.2.09.38.26.52.22.18.75.38,1.59.57s1.47.41,1.87.62.72.5.95.87.34.83.34,1.37c0,.49-.14.95-.41,1.38s-.66.75-1.16.96-1.12.31-1.87.31c-1.09,0-1.92-.25-2.5-.75s-.93-1.23-1.04-2.19Z"/>
    </g>
  </g>
</svg>